<svg width="18" height="18" viewBox="0 0 18 18" fill="none" xmlns="http://www.w3.org/2000/svg">
<path fill-rule="evenodd" clip-rule="evenodd" d="M15.3218 6.30091C15.0428 4.83512 14.3362 3.43409 13.2035 2.29994C10.1964 -0.710981 5.32053 -0.710981 2.3134 2.29994C1.39606 3.21843 0.585925 4.57804 0.23162 6.08749C-0.12483 7.60608 -0.0260045 9.31189 0.936755 10.8631C0.98605 10.9425 1.01654 10.9917 1.03808 11.0285C1.04801 11.0455 1.05324 11.0552 1.05544 11.0593C1.05745 11.0647 1.05868 11.0683 1.05941 11.0706C1.0594 11.0734 1.05928 11.0781 1.05882 11.0851C1.05823 11.0884 1.05685 11.0956 1.05405 11.108C1.04693 11.1396 1.03609 11.1817 1.01679 11.2563L1.0112 11.2779C0.900621 11.705 0.809739 12.0561 0.756317 12.3397C0.702542 12.6252 0.67143 12.9134 0.72863 13.1949C0.891732 13.9973 1.51825 14.6251 2.32072 14.7886C2.60222 14.8459 2.89042 14.8147 3.17566 14.7609C3.45904 14.7074 3.80973 14.6163 4.23628 14.5056L4.25791 14.5C4.33233 14.4807 4.37445 14.4699 4.40593 14.4627C4.41819 14.4599 4.42534 14.4586 4.42864 14.458C4.43517 14.4575 4.43964 14.4574 4.44243 14.4574C4.44472 14.4581 4.4482 14.4593 4.45305 14.4611C4.45726 14.4633 4.46703 14.4686 4.48415 14.4786C4.52124 14.5002 4.57085 14.5309 4.6507 14.5803C5.1673 14.8999 5.70498 15.1234 6.24965 15.2648C6.45171 15.5463 6.67894 15.8149 6.9312 16.0674C7.67444 16.8116 8.80965 17.487 10.0741 17.7899C11.3474 18.0949 12.7981 18.031 14.1108 17.2187C14.1744 17.1794 14.2133 17.1553 14.242 17.1385C14.2649 17.144 14.2963 17.1521 14.3485 17.1656L14.3695 17.1711C14.718 17.2615 15.0099 17.3373 15.247 17.382C15.4859 17.4272 15.7403 17.4562 15.9936 17.4046C16.6978 17.2611 17.2476 16.7101 17.3907 16.006C17.4422 15.7529 17.4133 15.4985 17.3683 15.2594C17.3236 15.0221 17.2479 14.7299 17.1576 14.3809L17.1521 14.3599C17.1385 14.3071 17.1303 14.2755 17.1249 14.2525C17.1416 14.224 17.1655 14.1854 17.205 14.1219C18.0164 12.8146 18.0981 11.3785 17.7993 10.1057C17.5027 8.84202 16.8251 7.70424 16.0556 6.93378C15.8237 6.70164 15.5783 6.49064 15.3218 6.30091ZM12.3191 3.18326C9.80022 0.661243 5.71669 0.661243 3.19784 3.18326C2.43953 3.94253 1.74808 5.09702 1.44855 6.37313C1.15116 7.6401 1.24624 8.99134 1.99881 10.2039C2.00594 10.2153 2.01316 10.2269 2.02043 10.2386C2.09218 10.3538 2.16946 10.4778 2.21426 10.5905C2.29374 10.7903 2.32125 10.9711 2.30482 11.1855C2.29559 11.306 2.26321 11.4302 2.23476 11.5393C2.2321 11.5495 2.22948 11.5596 2.22691 11.5695C2.10936 12.0236 2.02942 12.3337 1.98472 12.5711C1.93948 12.8113 1.94555 12.9063 1.95358 12.9459C2.01694 13.2576 2.26004 13.5005 2.5703 13.5637C2.60935 13.5717 2.7039 13.5778 2.94375 13.5326C3.18069 13.4878 3.49036 13.4078 3.94391 13.2901C3.95384 13.2875 3.96392 13.2849 3.97414 13.2822C4.08299 13.2538 4.20708 13.2213 4.32725 13.212C4.54145 13.1955 4.72112 13.2227 4.92081 13.3018C5.03319 13.3464 5.15764 13.4237 5.27338 13.4956C5.28516 13.5029 5.29685 13.5101 5.30842 13.5173C5.3312 13.5314 5.35403 13.5453 5.3769 13.5589C4.62336 11.3089 5.14102 8.72622 6.9312 6.93378C8.78648 5.07616 11.49 4.58665 13.7928 5.46438C13.4792 4.63283 12.9881 3.85313 12.3191 3.18326ZM14.3998 7.17943C12.3772 5.8116 9.60583 6.02466 7.81564 7.81711C6.04016 9.59482 5.81572 12.3395 7.14478 14.3608C7.33591 14.6515 7.55943 14.9276 7.81564 15.1841C8.39598 15.7652 9.32598 16.3253 10.3653 16.5743C11.3959 16.8211 12.4876 16.7531 13.453 16.1558C13.4626 16.1498 13.4724 16.1437 13.4825 16.1375C13.5755 16.0797 13.6872 16.0102 13.7896 15.9696C13.9697 15.8982 14.1345 15.8733 14.3276 15.8882C14.4371 15.8967 14.5493 15.9261 14.637 15.949C14.6458 15.9513 14.6543 15.9536 14.6625 15.9557C15.0375 16.053 15.2883 16.1178 15.4789 16.1537C15.6724 16.1903 15.7332 16.1819 15.744 16.1797C15.9561 16.1365 16.1224 15.9704 16.1658 15.757C16.1681 15.7458 16.1764 15.6846 16.1398 15.4907C16.1039 15.2998 16.0392 15.0486 15.942 14.6731C15.9399 14.6649 15.9377 14.6564 15.9354 14.6476C15.9124 14.5597 15.8831 14.4474 15.8747 14.3377C15.8598 14.1444 15.8851 13.9786 15.9567 13.7984C15.9976 13.6958 16.067 13.5844 16.1247 13.4919C16.1309 13.4819 16.137 13.4722 16.1429 13.4627C16.7441 12.494 16.8221 11.4125 16.5824 10.3913C16.3406 9.361 15.7816 8.42834 15.1712 7.81711C14.9299 7.5756 14.6714 7.36313 14.3998 7.17943Z" fill="#432BBB"/>
<path d="M9.83353 11.5001C9.83353 11.9603 9.46043 12.3334 9.0002 12.3334C8.53996 12.3334 8.16686 11.9603 8.16686 11.5001C8.16686 11.0398 8.53996 10.6667 9.0002 10.6667C9.46043 10.6667 9.83353 11.0398 9.83353 11.5001Z" fill="#432BBB"/>
<path d="M12.3335 11.5001C12.3335 11.9603 11.9604 12.3334 11.5002 12.3334C11.04 12.3334 10.6669 11.9603 10.6669 11.5001C10.6669 11.0398 11.04 10.6667 11.5002 10.6667C11.9604 10.6667 12.3335 11.0398 12.3335 11.5001Z" fill="#432BBB"/>
<path d="M14.8335 11.5001C14.8335 11.9603 14.4604 12.3334 14.0002 12.3334C13.54 12.3334 13.1669 11.9603 13.1669 11.5001C13.1669 11.0398 13.54 10.6667 14.0002 10.6667C14.4604 10.6667 14.8335 11.0398 14.8335 11.5001Z" fill="#432BBB"/>
</svg>
