<svg width="16" height="14" viewBox="0 0 16 14" fill="none" xmlns="http://www.w3.org/2000/svg">
<path fill-rule="evenodd" clip-rule="evenodd" d="M2.99967 0.541748C1.73402 0.541748 0.708008 1.56776 0.708008 2.83341C0.708008 4.09907 1.73402 5.12508 2.99967 5.12508C4.26533 5.12508 5.29134 4.09907 5.29134 2.83341C5.29134 1.56776 4.26533 0.541748 2.99967 0.541748ZM1.95801 2.83341C1.95801 2.25812 2.42438 1.79175 2.99967 1.79175C3.57497 1.79175 4.04134 2.25812 4.04134 2.83341C4.04134 3.40871 3.57497 3.87508 2.99967 3.87508C2.42438 3.87508 1.95801 3.40871 1.95801 2.83341Z" fill="#2D264B"/>
<path d="M7.99967 2.20841C7.6545 2.20841 7.37467 2.48824 7.37467 2.83341C7.37467 3.17859 7.6545 3.45841 7.99967 3.45841L14.6663 3.45842C15.0115 3.45842 15.2913 3.17859 15.2913 2.83342C15.2913 2.48824 15.0115 2.20842 14.6663 2.20842L7.99967 2.20841Z" fill="#2D264B"/>
<path fill-rule="evenodd" clip-rule="evenodd" d="M12.9997 8.87508C11.734 8.87508 10.708 9.9011 10.708 11.1667C10.708 12.4324 11.734 13.4584 12.9997 13.4584C14.2653 13.4584 15.2913 12.4324 15.2913 11.1667C15.2913 9.9011 14.2653 8.87508 12.9997 8.87508ZM11.958 11.1667C11.958 10.5915 12.4244 10.1251 12.9997 10.1251C13.575 10.1251 14.0413 10.5915 14.0413 11.1667C14.0413 11.742 13.575 12.2084 12.9997 12.2084C12.4244 12.2084 11.958 11.742 11.958 11.1667Z" fill="#2D264B"/>
<path d="M1.33301 10.5417C0.98783 10.5417 0.708008 10.8216 0.708008 11.1667C0.708008 11.5119 0.98783 11.7917 1.33301 11.7917L7.99967 11.7917C8.34485 11.7917 8.62467 11.5119 8.62467 11.1667C8.62467 10.8216 8.34485 10.5417 7.99967 10.5417H1.33301Z" fill="#2D264B"/>
<path fill-rule="evenodd" clip-rule="evenodd" d="M2.99967 0.541748C1.73402 0.541748 0.708008 1.56776 0.708008 2.83341C0.708008 4.09907 1.73402 5.12508 2.99967 5.12508C4.26533 5.12508 5.29134 4.09907 5.29134 2.83341C5.29134 1.56776 4.26533 0.541748 2.99967 0.541748ZM1.95801 2.83341C1.95801 2.25812 2.42438 1.79175 2.99967 1.79175C3.57497 1.79175 4.04134 2.25812 4.04134 2.83341C4.04134 3.40871 3.57497 3.87508 2.99967 3.87508C2.42438 3.87508 1.95801 3.40871 1.95801 2.83341Z" stroke="#1A2820"/>
<path d="M7.99967 2.20841C7.6545 2.20841 7.37467 2.48824 7.37467 2.83341C7.37467 3.17859 7.6545 3.45841 7.99967 3.45841L14.6663 3.45842C15.0115 3.45842 15.2913 3.17859 15.2913 2.83342C15.2913 2.48824 15.0115 2.20842 14.6663 2.20842L7.99967 2.20841Z" stroke="#1A2820"/>
<path fill-rule="evenodd" clip-rule="evenodd" d="M12.9997 8.87508C11.734 8.87508 10.708 9.9011 10.708 11.1667C10.708 12.4324 11.734 13.4584 12.9997 13.4584C14.2653 13.4584 15.2913 12.4324 15.2913 11.1667C15.2913 9.9011 14.2653 8.87508 12.9997 8.87508ZM11.958 11.1667C11.958 10.5915 12.4244 10.1251 12.9997 10.1251C13.575 10.1251 14.0413 10.5915 14.0413 11.1667C14.0413 11.742 13.575 12.2084 12.9997 12.2084C12.4244 12.2084 11.958 11.742 11.958 11.1667Z" stroke="#1A2820"/>
<path d="M1.33301 10.5417C0.98783 10.5417 0.708008 10.8216 0.708008 11.1667C0.708008 11.5119 0.98783 11.7917 1.33301 11.7917L7.99967 11.7917C8.34485 11.7917 8.62467 11.5119 8.62467 11.1667C8.62467 10.8216 8.34485 10.5417 7.99967 10.5417H1.33301Z" stroke="#1A2820"/>
</svg>
