<svg width="22" height="18" viewBox="0 0 22 18" fill="none" xmlns="http://www.w3.org/2000/svg">
<path d="M3.73005 16.455L4.07054 15.7868L3.73005 16.455ZM1.54497 14.27L2.21322 13.9295L1.54497 14.27ZM20.455 14.27L19.7868 13.9295L20.455 14.27ZM18.27 16.455L17.9295 15.7868L18.27 16.455ZM18.27 1.54497L17.9295 2.21322L18.27 1.54497ZM20.455 3.73005L21.1233 3.38955L20.455 3.73005ZM3.73005 1.54497L4.07054 2.21322L3.73005 1.54497ZM1.54497 3.73005L0.876713 3.38955L1.54497 3.73005ZM14 14.75C14.4142 14.75 14.75 14.4142 14.75 14C14.75 13.5858 14.4142 13.25 14 13.25V14.75ZM10 13.25C9.58579 13.25 9.25 13.5858 9.25 14C9.25 14.4142 9.58579 14.75 10 14.75V13.25ZM7 14.75C7.41421 14.75 7.75 14.4142 7.75 14C7.75 13.5858 7.41421 13.25 7 13.25V14.75ZM5 13.25C4.58579 13.25 4.25 13.5858 4.25 14C4.25 14.4142 4.58579 14.75 5 14.75V13.25ZM1.01105 7L0.261185 6.98564L1.01105 7ZM20.989 7L21.7388 6.98564L20.989 7ZM9 1.75H13V0.25H9V1.75ZM13 16.25H9V17.75H13V16.25ZM9 16.25C7.58749 16.25 6.57322 16.2494 5.77708 16.1844C4.9897 16.12 4.48197 15.9964 4.07054 15.7868L3.38955 17.1233C4.04768 17.4586 4.77479 17.6075 5.65494 17.6794C6.52632 17.7506 7.61224 17.75 9 17.75V16.25ZM0.25 9C0.25 10.3878 0.249417 11.4737 0.320612 12.3451C0.392522 13.2252 0.541378 13.9523 0.876713 14.6104L2.21322 13.9295C2.00359 13.518 1.87996 13.0103 1.81563 12.2229C1.75058 11.4268 1.75 10.4125 1.75 9H0.25ZM4.07054 15.7868C3.27085 15.3793 2.62068 14.7291 2.21322 13.9295L0.876713 14.6104C1.42798 15.6924 2.30762 16.572 3.38955 17.1233L4.07054 15.7868ZM20.25 9C20.25 10.4125 20.2494 11.4268 20.1844 12.2229C20.12 13.0103 19.9964 13.518 19.7868 13.9295L21.1233 14.6104C21.4586 13.9523 21.6075 13.2252 21.6794 12.3451C21.7506 11.4737 21.75 10.3878 21.75 9H20.25ZM13 17.75C14.3878 17.75 15.4737 17.7506 16.3451 17.6794C17.2252 17.6075 17.9523 17.4586 18.6104 17.1233L17.9295 15.7868C17.518 15.9964 17.0103 16.12 16.2229 16.1844C15.4268 16.2494 14.4125 16.25 13 16.25V17.75ZM19.7868 13.9295C19.3793 14.7291 18.7291 15.3793 17.9295 15.7868L18.6104 17.1233C19.6924 16.572 20.572 15.6924 21.1233 14.6104L19.7868 13.9295ZM13 1.75C14.4125 1.75 15.4268 1.75058 16.2229 1.81563C17.0103 1.87996 17.518 2.00359 17.9295 2.21322L18.6104 0.876713C17.9523 0.541378 17.2252 0.392522 16.3451 0.320612C15.4737 0.249417 14.3878 0.25 13 0.25V1.75ZM17.9295 2.21322C18.7291 2.62068 19.3793 3.27085 19.7868 4.07054L21.1233 3.38955C20.572 2.30762 19.6924 1.42798 18.6104 0.876713L17.9295 2.21322ZM9 0.25C7.61224 0.25 6.52632 0.249417 5.65494 0.320612C4.77479 0.392522 4.04768 0.541378 3.38955 0.876713L4.07054 2.21322C4.48197 2.00359 4.9897 1.87996 5.77708 1.81563C6.57322 1.75058 7.58749 1.75 9 1.75V0.25ZM3.38955 0.876713C2.30762 1.42798 1.42798 2.30762 0.876713 3.38955L2.21322 4.07054C2.62068 3.27085 3.27085 2.62068 4.07054 2.21322L3.38955 0.876713ZM14 13.25H10V14.75H14V13.25ZM7 13.25H5V14.75H7V13.25ZM1.75 9C1.75 8.2343 1.75003 7.58271 1.76091 7.01436L0.261185 6.98564C0.249971 7.57134 0.25 8.23863 0.25 9H1.75ZM1.76091 7.01436C1.79044 5.47218 1.90325 4.6789 2.21322 4.07054L0.876713 3.38955C0.393939 4.33705 0.290597 5.44938 0.261185 6.98564L1.76091 7.01436ZM20.989 6.25H1.01105V7.75H20.989V6.25ZM21.75 9C21.75 8.23863 21.75 7.57134 21.7388 6.98564L20.2391 7.01436C20.25 7.58271 20.25 8.2343 20.25 9H21.75ZM21.7388 6.98564C21.7094 5.44938 21.6061 4.33705 21.1233 3.38955L19.7868 4.07054C20.0968 4.6789 20.2096 5.47218 20.2391 7.01436L21.7388 6.98564Z" fill="#A1A6A4"/>
</svg>
