<svg width="40" height="40" viewBox="0 0 40 40" fill="none" xmlns="http://www.w3.org/2000/svg">
<circle cx="20" cy="20" r="20" fill="white"/>
<circle cx="20" cy="20" r="19.5" stroke="#06CA8C" stroke-opacity="0.3"/>
<path fill-rule="evenodd" clip-rule="evenodd" d="M17.5 11.0417C17.8452 11.0417 18.125 11.3216 18.125 11.6667V12.7173C18.6827 12.7084 19.3024 12.7084 19.9908 12.7084H20.0092C20.6976 12.7084 21.3173 12.7084 21.875 12.7173V11.6667C21.875 11.3216 22.1548 11.0417 22.5 11.0417C22.8452 11.0417 23.125 11.3216 23.125 11.6667V12.7614C24.3849 12.8404 25.3529 13.0445 26.1498 13.6235C26.5566 13.9191 26.9143 14.2768 27.2099 14.6836C27.6981 15.3555 27.9167 16.1425 28.0219 17.1138C28.125 18.0656 28.125 19.2653 28.125 20.7957V20.843C28.125 21.8095 28.125 22.6406 28.1005 23.3548C28.047 24.916 27.8781 26.0635 27.2099 26.9832C26.9143 27.39 26.5566 27.7477 26.1498 28.0433C25.2301 28.7115 24.0826 28.8805 22.5214 28.9339C21.807 28.9584 20.9758 28.9584 20.009 28.9584H19.9623C18.4318 28.9584 17.2322 28.9584 16.2804 28.8553C15.3091 28.7501 14.5221 28.5315 13.8502 28.0433C13.4434 27.7477 13.0857 27.39 12.7901 26.9832C12.3019 26.3113 12.0833 25.5243 11.9781 24.553C11.875 23.6012 11.875 22.4016 11.875 20.8711V20.7957C11.875 19.2653 11.875 18.0656 11.9781 17.1138C12.0833 16.1425 12.3019 15.3555 12.7901 14.6836C13.0857 14.2768 13.4434 13.9191 13.8502 13.6235C14.6471 13.0445 15.6151 12.8404 16.875 12.7614V11.6667C16.875 11.3216 17.1548 11.0417 17.5 11.0417ZM16.875 14.0145C15.74 14.0925 15.0848 14.2716 14.5849 14.6348C14.2843 14.8533 14.0198 15.1177 13.8014 15.4183C13.4938 15.8417 13.3145 16.3835 13.2208 17.2485C13.1259 18.1251 13.125 19.2571 13.125 20.8334C13.125 22.4097 13.1259 23.5418 13.2208 24.4184C13.3145 25.2833 13.4938 25.8252 13.8014 26.2485C14.0198 26.5492 14.2843 26.8136 14.5849 27.032C15.0083 27.3396 15.5501 27.5189 16.415 27.6126C17.2917 27.7076 18.4237 27.7084 20 27.7084C20.707 27.7084 21.3265 27.7084 21.8765 27.6994C21.8802 27.3039 21.8925 27.0127 21.934 26.7505C22.2587 24.7002 23.8668 23.0921 25.9171 22.7674C26.1793 22.7259 26.4704 22.7136 26.866 22.7099C26.875 22.1599 26.875 21.5404 26.875 20.8334C26.875 19.2571 26.8741 18.1251 26.7792 17.2485C26.6855 16.3835 26.5062 15.8417 26.1986 15.4183C25.9802 15.1177 25.7157 14.8533 25.4151 14.6348C24.9152 14.2716 24.26 14.0925 23.125 14.0145V14.1667C23.125 14.5119 22.8452 14.7917 22.5 14.7917C22.1548 14.7917 21.875 14.5119 21.875 14.1667V13.9674C21.3253 13.9585 20.7063 13.9584 20 13.9584C19.2937 13.9584 18.6747 13.9585 18.125 13.9674V14.1667C18.125 14.5119 17.8452 14.7917 17.5 14.7917C17.1548 14.7917 16.875 14.5119 16.875 14.1667V14.0145ZM26.8188 23.9607C26.4813 23.9646 26.2835 23.975 26.1126 24.002C24.5972 24.242 23.4086 25.4306 23.1686 26.946C23.1415 27.1169 23.1312 27.3148 23.1273 27.6522C24.2609 27.5741 24.9155 27.395 25.4151 27.032C25.7157 26.8136 25.9802 26.5492 26.1986 26.2485C26.5615 25.7489 26.7407 25.0944 26.8188 23.9607Z" fill="#06CA8C"/>
<path d="M16.6667 17.5001C16.6667 17.9603 16.2936 18.3334 15.8333 18.3334C15.3731 18.3334 15 17.9603 15 17.5001C15 17.0398 15.3731 16.6667 15.8333 16.6667C16.2936 16.6667 16.6667 17.0398 16.6667 17.5001Z" fill="#06CA8C"/>
<path d="M16.6667 20.8334C16.6667 21.2937 16.2936 21.6667 15.8333 21.6667C15.3731 21.6667 15 21.2937 15 20.8334C15 20.3732 15.3731 20.0001 15.8333 20.0001C16.2936 20.0001 16.6667 20.3732 16.6667 20.8334Z" fill="#06CA8C"/>
<path d="M20.8333 17.5001C20.8333 17.9603 20.4602 18.3334 20 18.3334C19.5398 18.3334 19.1667 17.9603 19.1667 17.5001C19.1667 17.0398 19.5398 16.6667 20 16.6667C20.4602 16.6667 20.8333 17.0398 20.8333 17.5001Z" fill="#06CA8C"/>
<path d="M20.8333 20.8334C20.8333 21.2937 20.4602 21.6667 20 21.6667C19.5398 21.6667 19.1667 21.2937 19.1667 20.8334C19.1667 20.3732 19.5398 20.0001 20 20.0001C20.4602 20.0001 20.8333 20.3732 20.8333 20.8334Z" fill="#06CA8C"/>
<path d="M20.8333 24.1667C20.8333 24.627 20.4602 25.0001 20 25.0001C19.5398 25.0001 19.1667 24.627 19.1667 24.1667C19.1667 23.7065 19.5398 23.3334 20 23.3334C20.4602 23.3334 20.8333 23.7065 20.8333 24.1667Z" fill="#06CA8C"/>
<path d="M25 17.5001C25 17.9603 24.6269 18.3334 24.1667 18.3334C23.7064 18.3334 23.3333 17.9603 23.3333 17.5001C23.3333 17.0398 23.7064 16.6667 24.1667 16.6667C24.6269 16.6667 25 17.0398 25 17.5001Z" fill="#06CA8C"/>
<path d="M25 20.8334C25 21.2937 24.6269 21.6667 24.1667 21.6667C23.7064 21.6667 23.3333 21.2937 23.3333 20.8334C23.3333 20.3732 23.7064 20.0001 24.1667 20.0001C24.6269 20.0001 25 20.3732 25 20.8334Z" fill="#06CA8C"/>
<path d="M16.6667 24.1667C16.6667 24.627 16.2936 25.0001 15.8333 25.0001C15.3731 25.0001 15 24.627 15 24.1667C15 23.7065 15.3731 23.3334 15.8333 23.3334C16.2936 23.3334 16.6667 23.7065 16.6667 24.1667Z" fill="#06CA8C"/>
</svg>
