<svg width="15" height="17" viewBox="0 0 15 17" fill="none" xmlns="http://www.w3.org/2000/svg">
<path fill-rule="evenodd" clip-rule="evenodd" d="M1.2571 0.118469C1.15439 0.381501 0.979839 0.986576 0.917085 1.29719C0.859311 1.58318 0.85061 1.71508 0.851577 2.2904C0.852632 2.90561 0.858345 2.97635 0.929946 3.26383C0.972427 3.43433 1.05121 3.68311 1.105 3.81668C1.32124 4.35365 1.31209 4.34294 4.27331 7.5427L7.05824 10.552L7.41419 10.1691L7.77015 9.78615L10.1361 12.6409C11.4373 14.2111 12.5694 15.572 12.6518 15.6652C13.0037 16.0634 13.4424 16.2346 13.8845 16.1463C14.7553 15.9724 15.2169 14.9876 14.8336 14.1215C14.7489 13.9301 14.3046 13.4434 8.29395 6.95807L1.84518 0H1.57427H1.30339L1.2571 0.118469ZM10.2198 1.77703C9.33214 2.73704 8.56621 3.58644 8.51772 3.66463C8.28815 4.03473 8.17799 4.35583 8.11623 4.83495C8.09262 5.01818 8.06054 5.20425 8.04496 5.24851C8.01815 5.32452 8.07162 5.38824 9.01987 6.41046L10.0232 7.492L10.2466 7.44221C10.3695 7.41485 10.506 7.39245 10.55 7.39245C10.708 7.39245 11.0196 7.28994 11.2928 7.14809L11.5712 7.00362L13.2704 5.17683L14.9696 3.35004L14.6772 3.03346C14.5163 2.85936 14.3714 2.71688 14.355 2.71688C14.3387 2.71688 13.7947 3.28891 13.1462 3.9881L11.967 5.25929L11.659 4.9283L11.351 4.59728L12.5449 3.30961L13.7388 2.0219L13.424 1.68245L13.1092 1.34296L11.915 2.63039L10.7209 3.91778L10.4139 3.58565L10.107 3.25353L11.2858 1.98203C11.9342 1.28268 12.4647 0.696091 12.4647 0.678494C12.4647 0.636951 11.9016 0.0315917 11.863 0.0315917C11.8468 0.0315917 11.1074 0.817024 10.2198 1.77703ZM2.38363 11.5862C0.350747 13.784 0.193804 13.9614 0.119478 14.1451C-0.215532 14.973 0.180298 15.8795 0.977964 16.1111C1.14879 16.1607 1.51925 16.1543 1.68695 16.0988C2.00268 15.9944 2.03719 15.9605 4.26159 13.5657L6.4442 11.2158L5.52153 10.2203C5.01405 9.67277 4.59188 9.22477 4.58338 9.22477C4.57489 9.22477 3.585 10.2874 2.38363 11.5862Z" fill="#F98B85"/>
</svg>
