<svg width="40" height="41" viewBox="0 0 40 41" fill="none" xmlns="http://www.w3.org/2000/svg">
<path fill-rule="evenodd" clip-rule="evenodd" d="M3.4541 0.157116C1.78144 0.598109 0.490741 1.93633 0.11995 3.6141C0.0114871 4.10488 -0.00234431 4.7811 0.016879 8.6493C0.0386029 13.0227 0.0425101 13.1222 0.200204 13.3335C0.50637 13.7435 0.756117 13.8714 1.2503 13.8714C1.7444 13.8714 1.99414 13.7435 2.30039 13.3335C2.45769 13.1228 2.46246 13.01 2.50059 8.57123C2.54435 3.48062 2.51489 3.73687 3.12574 3.12599C3.73659 2.5151 3.48036 2.54456 8.57063 2.5008C13.0091 2.46266 13.1219 2.45789 13.3325 2.30058C13.7426 1.99431 13.8705 1.74455 13.8705 1.25042C13.8705 0.756204 13.7426 0.50644 13.3325 0.200254C13.121 0.0423152 13.0275 0.0387985 8.57055 0.0229343C4.30422 0.00777345 3.98931 0.0160572 3.4541 0.157116ZM26.8384 0.109992C25.9226 0.508863 25.8714 1.8606 26.7531 2.36583C26.8778 2.43726 28.0756 2.47165 31.4528 2.5008C36.5273 2.54456 36.2731 2.51525 36.8837 3.12599C37.4946 3.73687 37.4651 3.48062 37.5089 8.57123C37.547 13.01 37.5518 13.1228 37.7091 13.3335C38.0153 13.7435 38.2651 13.8714 38.7592 13.8714C39.2534 13.8714 39.5031 13.7435 39.8093 13.3335C39.967 13.1222 39.9709 13.0227 39.9926 8.6493C40.0175 3.64442 40.0085 3.53548 39.4815 2.48212C39.1302 1.77972 38.2997 0.927974 37.6116 0.56427C37.3457 0.423759 36.8566 0.239328 36.5246 0.15438C35.9577 0.00941458 35.6527 0.000193026 31.4989 0.00308453C27.9991 0.00550714 27.027 0.0277795 26.8384 0.109992ZM9.14287 10.0908C9.03542 10.1337 8.86507 10.2458 8.76419 10.3399C8.38683 10.6923 8.36136 10.8305 8.36136 12.5274C8.36136 14.0523 8.36902 14.1332 8.53718 14.3802C8.79169 14.7542 9.07723 14.9382 9.47178 14.9827C9.92454 15.0337 10.3902 14.8019 10.6392 14.4014C10.8165 14.1163 10.8229 14.0497 10.8229 12.5038C10.8229 10.958 10.8165 10.8914 10.6392 10.6063C10.3295 10.1081 9.66964 9.88077 9.14287 10.0908ZM19.8138 10.1757C19.6442 10.2742 19.4332 10.4779 19.3449 10.6283C19.1889 10.8938 19.1831 11.0374 19.1452 15.5516C19.1009 20.8236 19.1425 20.4945 18.4403 21.1258C17.9458 21.5705 17.6461 21.6472 16.4011 21.6477C15.8259 21.6479 15.2268 21.6838 15.0698 21.7273C14.6811 21.8353 14.2541 22.321 14.1842 22.7344C14.114 23.1499 14.3793 23.719 14.7612 23.9721C15.0101 24.137 15.1085 24.148 16.3397 24.148C17.8953 24.148 18.2674 24.083 19.1366 23.6589C20.0345 23.221 20.7188 22.5366 21.1567 21.6386C21.3326 21.2781 21.5146 20.7966 21.5611 20.5689C21.6162 20.2992 21.6458 18.5386 21.6458 15.5203V10.8858L21.4699 10.6275C21.0616 10.0274 20.3859 9.8431 19.8138 10.1757ZM28.245 10.1087C27.9294 10.2518 27.6022 10.6503 27.5437 10.9627C27.5178 11.1011 27.5076 11.8889 27.5211 12.7133C27.5479 14.3536 27.565 14.4171 28.0836 14.8044C28.3862 15.0303 29.1275 15.0303 29.43 14.8044C29.9626 14.4068 29.968 14.3835 29.968 12.5038C29.968 10.9008 29.9581 10.7828 29.8069 10.5802C29.7183 10.4615 29.5539 10.2957 29.4416 10.2119C29.1829 10.0188 28.5613 9.96517 28.245 10.1087ZM0.742364 26.2077C0.45292 26.3417 0.193405 26.6174 0.0833791 26.9078C0.0278972 27.0542 0 28.6003 0 31.5256C0 35.6494 0.00961166 35.961 0.154333 36.5271C0.239275 36.859 0.423694 37.3482 0.564196 37.6141C0.927876 38.3023 1.77956 39.1328 2.48192 39.4842C3.53521 40.0112 3.64415 40.0202 8.64869 39.9953C13.0218 39.9736 13.1213 39.9697 13.3325 39.812C13.7426 39.5058 13.8705 39.256 13.8705 38.7618C13.8705 38.2677 13.7426 38.0179 13.3325 37.7116C13.1219 37.5543 13.0091 37.5496 8.57063 37.5114C3.48036 37.4677 3.73659 37.4971 3.12574 36.8862C2.51489 36.2753 2.54435 36.5316 2.50059 31.441C2.46246 27.0022 2.45769 26.8894 2.30039 26.6788C2.21177 26.5601 2.04736 26.3944 1.93507 26.3105C1.6761 26.1172 1.05377 26.0635 0.742364 26.2077ZM38.2904 26.1852C38.0619 26.2814 37.767 26.544 37.6385 26.766C37.574 26.8773 37.5367 28.2269 37.5089 31.4549C37.4651 36.5298 37.4944 36.2755 36.8837 36.8862C36.2729 37.4971 36.5291 37.4677 31.4389 37.5114C27.0004 37.5496 26.8875 37.5543 26.677 37.7116C26.2669 38.0179 26.139 38.2677 26.139 38.7618C26.139 39.256 26.2669 39.5058 26.677 39.812C26.8882 39.9697 26.9876 39.9736 31.3608 39.9953C36.3653 40.0202 36.4743 40.0112 37.5276 39.4842C38.2913 39.1021 39.0994 38.2939 39.4815 37.5301C40.0085 36.4767 40.0175 36.3678 39.9926 31.3629C39.9709 26.9895 39.967 26.89 39.8093 26.6788C39.7207 26.5601 39.5563 26.3944 39.444 26.3105C39.2066 26.1334 38.5766 26.0649 38.2904 26.1852ZM12.7544 27.2476C12.3705 27.4369 12.1642 27.7786 12.1285 28.2848C12.0992 28.6992 12.117 28.7491 12.5064 29.3449C13.2702 30.5133 14.4002 31.4868 15.7379 32.1286C16.775 32.6263 17.6074 32.8276 18.8326 32.8769C20.4074 32.9402 21.7235 32.6414 23.0277 31.9245C24.3372 31.2047 25.5308 30.0217 26.1364 28.8435C26.5211 28.0951 25.885 27.1172 25.0139 27.118C24.5531 27.1183 24.2162 27.323 23.891 27.8003C23.752 28.0041 23.4274 28.3962 23.1696 28.6716C21.2094 30.7653 18.0224 30.9897 15.7295 29.1956C15.2414 28.8137 15.0345 28.581 14.3502 27.6451C14.2324 27.4838 14.034 27.2992 13.9094 27.2348C13.6145 27.0823 13.0778 27.0883 12.7544 27.2476Z" fill="#234039"/>
</svg>
