<svg width="29" height="29" viewBox="0 0 29 29" fill="none" xmlns="http://www.w3.org/2000/svg">
<path d="M16.2083 9.20571L8.40234 10.8405C3.15626 11.9353 2.83627 14.6982 7.6932 16.9632L9.16197 17.6494C9.5892 17.8531 9.89455 18.2384 9.99522 18.7009L10.3223 20.2811C11.4172 25.5272 14.1735 25.8524 16.445 20.9902L19.8208 13.7646C21.3351 10.5232 19.71 8.47235 16.2083 9.20571ZM16.2931 13.6467L12.7661 16.4414C12.4983 16.6536 12.1003 16.6075 11.8881 16.3398C11.6759 16.072 11.722 15.6739 11.9898 15.4617L15.5167 12.667C15.7845 12.4548 16.1826 12.5009 16.3948 12.7687C16.607 13.0365 16.5609 13.4345 16.2931 13.6467Z" fill="white"/>
</svg>
