<svg width="15" height="15" viewBox="0 0 15 15" fill="none" xmlns="http://www.w3.org/2000/svg">
<path d="M13.75 10.4688H10C9.74375 10.4688 9.53125 10.6812 9.53125 10.9375C9.53125 11.1937 9.74375 11.4062 10 11.4062H13.75C14.0062 11.4062 14.2188 11.1937 14.2188 10.9375C14.2188 10.6812 14.0062 10.4688 13.75 10.4688Z" fill="white"/>
<path d="M3.75 10.4688H1.25C0.99375 10.4688 0.78125 10.6812 0.78125 10.9375C0.78125 11.1937 0.99375 11.4062 1.25 11.4062H3.75C4.00625 11.4062 4.21875 11.1937 4.21875 10.9375C4.21875 10.6812 4.00625 10.4688 3.75 10.4688Z" fill="white"/>
<path d="M6.25 8.28125C4.7875 8.28125 3.59375 9.475 3.59375 10.9375C3.59375 12.4 4.7875 13.5938 6.25 13.5938C7.7125 13.5938 8.90625 12.4 8.90625 10.9375C8.90625 9.475 7.7125 8.28125 6.25 8.28125ZM6.25 12.6562C5.3 12.6562 4.53125 11.8875 4.53125 10.9375C4.53125 9.9875 5.3 9.21875 6.25 9.21875C7.2 9.21875 7.96875 9.9875 7.96875 10.9375C7.96875 11.8875 7.2 12.6562 6.25 12.6562Z" fill="white"/>
<path d="M13.75 3.59375L11.25 3.59375C10.9938 3.59375 10.7812 3.80625 10.7812 4.0625C10.7812 4.31875 10.9938 4.53125 11.25 4.53125H13.75C14.0062 4.53125 14.2188 4.31875 14.2188 4.0625C14.2188 3.80625 14.0062 3.59375 13.75 3.59375Z" fill="white"/>
<path d="M5 3.59375L1.25 3.59375C0.99375 3.59375 0.78125 3.80625 0.78125 4.0625C0.78125 4.31875 0.99375 4.53125 1.25 4.53125H5C5.25625 4.53125 5.46875 4.31875 5.46875 4.0625C5.46875 3.80625 5.25625 3.59375 5 3.59375Z" fill="white"/>
<path d="M8.75 1.40625C7.2875 1.40625 6.09375 2.6 6.09375 4.0625C6.09375 5.525 7.2875 6.71875 8.75 6.71875C10.2125 6.71875 11.4062 5.525 11.4062 4.0625C11.4062 2.6 10.2125 1.40625 8.75 1.40625ZM8.75 5.78125C7.8 5.78125 7.03125 5.0125 7.03125 4.0625C7.03125 3.1125 7.8 2.34375 8.75 2.34375C9.7 2.34375 10.4688 3.1125 10.4688 4.0625C10.4688 5.0125 9.7 5.78125 8.75 5.78125Z" fill="white"/>
</svg>
