<svg width="16" height="19" viewBox="0 0 16 19" fill="none" xmlns="http://www.w3.org/2000/svg">
<path fill-rule="evenodd" clip-rule="evenodd" d="M7.24966 0.041748C4.42003 0.041748 2.23071 2.52177 2.58168 5.32955L2.64781 5.85859C2.74458 6.63272 2.4618 7.40596 1.88846 7.93504C0.700394 9.03137 0.370314 10.7763 1.07586 12.2309L1.16198 12.4084C1.81962 13.7642 3.19404 14.6251 4.7009 14.6251H11.5516C12.8513 14.6251 14.061 13.9611 14.7589 12.8645C15.744 11.3167 15.4831 9.28609 14.1387 8.03755L14.1021 8.00359C13.4867 7.43203 13.1836 6.59935 13.2878 5.76592L13.3417 5.33515C13.693 2.5244 11.5014 0.041748 8.66875 0.041748H7.24966ZM3.82203 5.17451C3.56431 3.11279 5.1719 1.29175 7.24966 1.29175H8.66875C10.7495 1.29175 12.3594 3.11542 12.1013 5.1801L12.0475 5.61088C11.8934 6.8432 12.3415 8.07441 13.2515 8.91952L13.2881 8.95349C14.1904 9.79152 14.3656 11.1545 13.7043 12.1934C13.2359 12.9294 12.424 13.3751 11.5516 13.3751H4.7009C3.67292 13.3751 2.7353 12.7878 2.28665 11.8629L2.20053 11.6853C1.73546 10.7265 1.95304 9.57634 2.73617 8.85367C3.60597 8.05103 4.03496 6.87796 3.88816 5.70355L3.82203 5.17451Z" fill="#11BB69"/>
<path d="M6.1525 16.1251C5.9454 15.8489 5.55364 15.793 5.2775 16.0001C5.00136 16.2072 4.9454 16.5989 5.1525 16.8751L5.4025 17.2084C6.7775 19.0417 9.5275 19.0417 10.9025 17.2084L11.1525 16.8751C11.3596 16.5989 11.3036 16.2072 11.0275 16.0001C10.7514 15.793 10.3596 15.8489 10.1525 16.1251L9.9025 16.4584C9.0275 17.6251 7.2775 17.6251 6.4025 16.4584L6.1525 16.1251Z" fill="#11BB69"/>
</svg>
