<svg width="20" height="22" viewBox="0 0 20 22" fill="none" xmlns="http://www.w3.org/2000/svg">
<path fill-rule="evenodd" clip-rule="evenodd" d="M9.99991 11.25C8.48113 11.25 7.24991 12.4812 7.24991 14C7.24991 15.5188 8.48113 16.75 9.99991 16.75C11.5187 16.75 12.7499 15.5188 12.7499 14C12.7499 12.4812 11.5187 11.25 9.99991 11.25ZM8.74991 14C8.74991 13.3096 9.30956 12.75 9.99991 12.75C10.6903 12.75 11.2499 13.3096 11.2499 14C11.2499 14.6904 10.6903 15.25 9.99991 15.25C9.30956 15.25 8.74991 14.6904 8.74991 14Z" fill="#A1A6A4"/>
<path fill-rule="evenodd" clip-rule="evenodd" d="M9.99991 0.25C6.82427 0.25 4.24991 2.82436 4.24991 6V6.52281L4.22306 6.53142C2.47255 7.1002 1.10011 8.47263 0.531336 10.2232C0.249462 11.0907 0.249626 12.1319 0.249894 13.8382V14.1618C0.249626 15.8681 0.249462 16.9093 0.531336 17.7768C1.10011 19.5274 2.47254 20.8998 4.22306 21.4686C5.09058 21.7505 6.13179 21.7503 7.83805 21.75H12.1618C13.868 21.7503 14.9092 21.7505 15.7768 21.4686C17.5273 20.8998 18.8997 19.5274 19.4685 17.7768C19.7504 16.9093 19.7502 15.8681 19.7499 14.1619V13.8381C19.7502 12.1319 19.7504 11.0907 19.4685 10.2232C18.8997 8.47263 17.5273 7.1002 15.7768 6.53142L15.7499 6.52281V6C15.7499 2.82436 13.1755 0.25 9.99991 0.25ZM7.91593 6.25C7.03673 6.24997 6.33502 6.24994 5.74991 6.28306V6C5.74991 3.65279 7.6527 1.75 9.99991 1.75C12.3471 1.75 14.2499 3.65279 14.2499 6V6.28306C13.6648 6.24994 12.9631 6.24997 12.0839 6.25H7.91593ZM5.12451 7.85329C5.72211 7.75262 6.52806 7.75 7.99991 7.75H11.9999C13.4718 7.75 14.2777 7.75262 14.8753 7.85329C15.0406 7.88113 15.1831 7.91571 15.3132 7.95801C16.6071 8.37841 17.6215 9.39282 18.0419 10.6867C18.2407 11.2984 18.2499 12.0803 18.2499 14C18.2499 15.9197 18.2407 16.7016 18.0419 17.3133C17.6215 18.6072 16.6071 19.6216 15.3132 20.042C14.7015 20.2407 13.9196 20.25 11.9999 20.25H7.99991C6.08025 20.25 5.2983 20.2407 4.68659 20.042C3.39273 19.6216 2.37832 18.6072 1.95792 17.3133C1.75916 16.7016 1.74991 15.9197 1.74991 14C1.74991 12.0803 1.75916 11.2984 1.95792 10.6867C2.37832 9.39282 3.39273 8.37841 4.68659 7.95801C4.81676 7.91571 4.95926 7.88113 5.12451 7.85329Z" fill="#A1A6A4"/>
<path fill-rule="evenodd" clip-rule="evenodd" d="M9.99991 11.25C8.48113 11.25 7.24991 12.4812 7.24991 14C7.24991 15.5188 8.48113 16.75 9.99991 16.75C11.5187 16.75 12.7499 15.5188 12.7499 14C12.7499 12.4812 11.5187 11.25 9.99991 11.25ZM8.74991 14C8.74991 13.3096 9.30956 12.75 9.99991 12.75C10.6903 12.75 11.2499 13.3096 11.2499 14C11.2499 14.6904 10.6903 15.25 9.99991 15.25C9.30956 15.25 8.74991 14.6904 8.74991 14Z" stroke="#A1A6A4"/>
<path fill-rule="evenodd" clip-rule="evenodd" d="M9.99991 0.25C6.82427 0.25 4.24991 2.82436 4.24991 6V6.52281L4.22306 6.53142C2.47255 7.1002 1.10011 8.47263 0.531336 10.2232C0.249462 11.0907 0.249626 12.1319 0.249894 13.8382V14.1618C0.249626 15.8681 0.249462 16.9093 0.531336 17.7768C1.10011 19.5274 2.47254 20.8998 4.22306 21.4686C5.09058 21.7505 6.13179 21.7503 7.83805 21.75H12.1618C13.868 21.7503 14.9092 21.7505 15.7768 21.4686C17.5273 20.8998 18.8997 19.5274 19.4685 17.7768C19.7504 16.9093 19.7502 15.8681 19.7499 14.1619V13.8381C19.7502 12.1319 19.7504 11.0907 19.4685 10.2232C18.8997 8.47263 17.5273 7.1002 15.7768 6.53142L15.7499 6.52281V6C15.7499 2.82436 13.1755 0.25 9.99991 0.25ZM7.91593 6.25C7.03673 6.24997 6.33502 6.24994 5.74991 6.28306V6C5.74991 3.65279 7.6527 1.75 9.99991 1.75C12.3471 1.75 14.2499 3.65279 14.2499 6V6.28306C13.6648 6.24994 12.9631 6.24997 12.0839 6.25H7.91593ZM5.12451 7.85329C5.72211 7.75262 6.52806 7.75 7.99991 7.75H11.9999C13.4718 7.75 14.2777 7.75262 14.8753 7.85329C15.0406 7.88113 15.1831 7.91571 15.3132 7.95801C16.6071 8.37841 17.6215 9.39282 18.0419 10.6867C18.2407 11.2984 18.2499 12.0803 18.2499 14C18.2499 15.9197 18.2407 16.7016 18.0419 17.3133C17.6215 18.6072 16.6071 19.6216 15.3132 20.042C14.7015 20.2407 13.9196 20.25 11.9999 20.25H7.99991C6.08025 20.25 5.2983 20.2407 4.68659 20.042C3.39273 19.6216 2.37832 18.6072 1.95792 17.3133C1.75916 16.7016 1.74991 15.9197 1.74991 14C1.74991 12.0803 1.75916 11.2984 1.95792 10.6867C2.37832 9.39282 3.39273 8.37841 4.68659 7.95801C4.81676 7.91571 4.95926 7.88113 5.12451 7.85329Z" stroke="#A1A6A4"/>
</svg>
