<svg width="18" height="16" viewBox="0 0 18 16" fill="none" xmlns="http://www.w3.org/2000/svg">
<path d="M4.00033 11.5416C3.65515 11.5416 3.37533 11.8214 3.37533 12.1666C3.37533 12.5118 3.65515 12.7916 4.00033 12.7916H5.66699C6.01217 12.7916 6.29199 12.5118 6.29199 12.1666C6.29199 11.8214 6.01217 11.5416 5.66699 11.5416H4.00033Z" fill="#F7931A"/>
<path d="M8.16699 11.5416C7.82181 11.5416 7.54199 11.8214 7.54199 12.1666C7.54199 12.5118 7.82181 12.7916 8.16699 12.7916H11.5003C11.8455 12.7916 12.1253 12.5118 12.1253 12.1666C12.1253 11.8214 11.8455 11.5416 11.5003 11.5416H8.16699Z" fill="#F7931A"/>
<path fill-rule="evenodd" clip-rule="evenodd" d="M13.4545 0.767095C12.7343 0.708245 11.8381 0.708248 10.695 0.708252H7.30569C6.16259 0.708248 5.2664 0.708245 4.54611 0.767095C3.81265 0.827021 3.20673 0.951067 2.65829 1.23051C1.75668 1.68991 1.02365 2.42294 0.564253 3.32455C0.161942 4.11413 0.0758234 5.04107 0.0513131 6.32129C0.0419922 6.80813 0.0419922 7.36263 0.0419922 7.9951V8.02788C0.0419884 9.17098 0.0419854 10.0672 0.100835 10.7875C0.160761 11.5209 0.284808 12.1268 0.564253 12.6753C1.02365 13.5769 1.75668 14.3099 2.65829 14.7693C3.20673 15.0488 3.81265 15.1728 4.54611 15.2327C5.26638 15.2916 6.16256 15.2916 7.30563 15.2916H10.695C11.838 15.2916 12.7343 15.2916 13.4545 15.2327C14.188 15.1728 14.7939 15.0488 15.3424 14.7693C16.244 14.3099 16.977 13.5769 17.4364 12.6753C17.7158 12.1268 17.8399 11.5209 17.8998 10.7875C17.9587 10.0672 17.9587 9.17101 17.9587 8.02794V7.99509C17.9587 7.36262 17.9587 6.80813 17.9493 6.32129C17.9248 5.04107 17.8387 4.11413 17.4364 3.32455C16.977 2.42294 16.244 1.68991 15.3424 1.23051C14.7939 0.951067 14.188 0.827021 13.4545 0.767095ZM3.22578 2.34427C3.56863 2.16958 3.99175 2.06655 4.6479 2.01294C5.31134 1.95874 6.15657 1.95825 7.33366 1.95825H10.667C11.8441 1.95825 12.6893 1.95874 13.3528 2.01294C14.0089 2.06655 14.432 2.16958 14.7749 2.34427C15.4413 2.68382 15.9831 3.22563 16.3226 3.89204C16.5344 4.30761 16.6357 4.82672 16.6789 5.70825H1.32171C1.36493 4.82672 1.46627 4.30761 1.67801 3.89204C2.01756 3.22563 2.55937 2.68382 3.22578 2.34427ZM1.29199 7.99992C1.29199 7.62095 1.292 7.27553 1.29391 6.95825H16.7067C16.7086 7.27553 16.7087 7.62095 16.7087 7.99992C16.7087 9.17701 16.7082 10.0222 16.654 10.6857C16.6004 11.3418 16.4973 11.7649 16.3226 12.1078C15.9831 12.7742 15.4413 13.316 14.7749 13.6556C14.432 13.8303 14.0089 13.9333 13.3528 13.9869C12.6893 14.0411 11.8441 14.0416 10.667 14.0416H7.33366C6.15657 14.0416 5.31134 14.0411 4.6479 13.9869C3.99175 13.9333 3.56863 13.8303 3.22578 13.6556C2.55937 13.316 2.01756 12.7742 1.67801 12.1078C1.50332 11.7649 1.40029 11.3418 1.34668 10.6857C1.29248 10.0222 1.29199 9.17701 1.29199 7.99992Z" fill="#F7931A"/>
</svg>
