<svg width="10" height="16" viewBox="0 0 10 16" fill="none" xmlns="http://www.w3.org/2000/svg">
<path d="M4.66019 15.2702C4.88605 15.2989 5.1146 15.2989 5.34046 15.2702C5.85555 15.2045 6.28467 14.9587 6.70744 14.6192C7.114 14.2927 7.57029 13.8323 8.12858 13.269L9.6109 11.7734C9.85389 11.5282 9.85212 11.1325 9.60696 10.8895C9.36179 10.6465 8.96607 10.6483 8.72308 10.8934L7.26699 12.3626C6.67604 12.9588 6.26934 13.3678 5.92474 13.6446C5.81275 13.7345 5.71416 13.8047 5.62532 13.8592L5.62533 1.33342C5.62533 0.988237 5.3455 0.708415 5.00033 0.708415C4.65515 0.708415 4.37533 0.988237 4.37533 1.33342L4.37532 13.8592C4.28649 13.8047 4.1879 13.7345 4.07591 13.6446C3.73131 13.3678 3.32461 12.9588 2.73366 12.3626L1.27757 10.8934C1.03458 10.6483 0.638857 10.6465 0.393693 10.8895C0.148528 11.1325 0.146764 11.5282 0.38975 11.7734L1.87208 13.269C2.43037 13.8323 2.88665 14.2927 3.29321 14.6192C3.71598 14.9587 4.1451 15.2045 4.66019 15.2702Z" fill="#FF5252"/>
</svg>
