<svg width="15" height="16" viewBox="0 0 15 16" fill="none" xmlns="http://www.w3.org/2000/svg">
<path d="M9.17504 14.2508C8.82987 14.2508 8.55004 14.5306 8.55004 14.8758C8.55004 15.2209 8.82987 15.5008 9.17504 15.5008H14.175C14.5202 15.5008 14.8 15.2209 14.8 14.8758C14.8 14.5306 14.5202 14.2508 14.175 14.2508H9.17504Z" fill="white"/>
<path d="M9.83677 1.81284L9.91182 1.85617C10.5603 2.23051 11.101 2.54267 11.4969 2.84821C11.9148 3.1707 12.2465 3.54087 12.3854 4.05935C12.5243 4.57784 12.4222 5.06425 12.2215 5.55249C12.0822 5.89138 11.8774 6.2722 11.6306 6.70659L11.1012 6.39192L11.0944 6.38792L5.3233 3.05598L4.78359 2.73789C5.03367 2.31198 5.25899 1.94821 5.48082 1.66075C5.80331 1.24285 6.17347 0.91116 6.69196 0.772232C7.21045 0.633304 7.69686 0.735475 8.1851 0.936142C8.64766 1.12625 9.18837 1.43845 9.83677 1.81284Z" fill="white"/>
<path d="M4.15741 3.81978L1.2591 8.83971C1.01094 9.26871 0.814724 9.60792 0.742028 9.99376C0.669332 10.3796 0.728654 10.767 0.80368 11.2569L0.823893 11.3893C0.962381 12.2987 1.07653 13.0484 1.2487 13.6168C1.42876 14.2114 1.70555 14.726 2.24995 15.0403C2.79434 15.3546 3.37839 15.337 3.9833 15.1957C4.56169 15.0605 5.26796 14.7846 6.12482 14.4498L6.24961 14.4011C6.71139 14.2211 7.07651 14.0788 7.37431 13.8229C7.6721 13.567 7.86776 13.2275 8.11521 12.7981L11.0067 7.78985L10.4659 7.46847L4.69102 4.13431L4.15741 3.81978Z" fill="white"/>
</svg>
