<svg width="16" height="17" viewBox="0 0 16 17" fill="none" xmlns="http://www.w3.org/2000/svg">
<path fill-rule="evenodd" clip-rule="evenodd" d="M13.945 0.0778264C13.3804 0.272684 13.1643 0.430853 11.2847 2.02493C10.4954 2.69442 9.81762 3.24167 9.77863 3.24108C9.67707 3.23956 6.91477 2.70861 6.89449 2.68671C6.8852 2.67668 6.9584 2.49728 7.05723 2.28806C7.20633 1.97232 7.23977 1.85821 7.25406 1.61664C7.26738 1.39107 7.25535 1.29246 7.20047 1.17819C6.91672 0.587421 5.88375 0.927811 4.99855 1.90382L4.6643 2.27235L3.5302 2.05677L2.39605 1.84119L1.64766 2.52909C1.23605 2.90743 0.91332 3.23215 0.930508 3.25068C0.947656 3.26917 2.32289 3.95792 3.98652 4.78115C5.65016 5.60439 7.02398 6.29161 7.03945 6.30829C7.06586 6.33677 3.21625 11.3968 3.11426 11.4677C3.08836 11.4857 2.52223 11.3886 1.85621 11.2518L0.645273 11.003L0.322656 11.3448L0 11.6866L2.19719 14.0562L4.39434 16.4257L4.7123 16.0846C4.90988 15.8727 5.0248 15.7173 5.01574 15.6743C4.90184 15.1329 4.57422 13.0789 4.59785 13.0542C4.84852 12.7932 9.36371 8.81461 9.38418 8.83668C9.39984 8.85357 10.0372 10.3351 10.8006 12.129C11.564 13.9229 12.2025 15.4056 12.2196 15.424C12.2367 15.4425 12.5377 15.0944 12.8886 14.6505L13.5265 13.8435L13.3271 12.6236L13.1277 11.4038L13.4693 11.0403C14.0311 10.4423 14.3685 9.80907 14.403 9.28743C14.4355 8.79498 14.217 8.57182 13.7348 8.60497C13.5107 8.62038 13.4049 8.65644 13.1121 8.81722C12.9181 8.92379 12.7517 9.00273 12.7424 8.9927C12.7221 8.97084 12.2297 5.99217 12.2283 5.88265C12.2278 5.84061 12.7353 5.10979 13.3561 4.25858C14.6266 2.51679 14.7804 2.28983 14.9735 1.8732C15.3145 1.13737 15.3219 0.607724 14.9961 0.256467C14.7532 -0.00544932 14.3733 -0.0700226 13.945 0.0778264Z" fill="#FECEA1"/>
</svg>
