<svg width="14" height="15" viewBox="0 0 14 15" fill="none" xmlns="http://www.w3.org/2000/svg">
<path fill-rule="evenodd" clip-rule="evenodd" d="M5.1981 0.0416821C3.15336 0.176272 1.82732 0.513186 1.32002 1.02702C1.05204 1.29846 0.848893 2.02965 0.712575 3.21345C0.662067 3.65202 0.659547 3.66137 0.585836 3.67904C0.387497 3.72656 0.161413 3.90058 0.0617153 4.08245C0.0192056 4.16 0.011354 4.29779 0.00370754 5.10067C-0.00484715 5.99894 -0.00306002 6.03407 0.0584927 6.17709C0.121071 6.32258 0.2907 6.50498 0.416969 6.56258L0.481305 6.59191L0.483151 8.86836C0.484645 10.691 0.495192 11.3054 0.536149 11.9505C0.591022 12.8144 0.606432 12.9143 0.708297 13.0639C0.845729 13.2659 0.891286 13.2813 1.35368 13.2824L1.77037 13.2835L1.78502 13.8694C1.79928 14.4399 1.80174 14.4589 1.87839 14.5892C2.07711 14.9273 2.56352 15.078 3.01405 14.9412C3.18658 14.8888 3.25332 14.8494 3.38105 14.7248C3.48532 14.6231 3.54781 14.5336 3.56914 14.4553C3.58674 14.3908 3.60116 14.0979 3.60125 13.8035L3.60142 13.2688H6.98216H10.3629L10.3733 13.8497L10.3836 14.4307L10.4724 14.5748C10.7092 14.9596 11.2794 15.1053 11.7341 14.8974C11.9367 14.8047 12.0495 14.7054 12.1363 14.5432C12.1931 14.4371 12.2 14.3711 12.2095 13.8447L12.2201 13.2634L12.4195 13.2834C12.7004 13.3116 12.9257 13.26 13.0605 13.1364L13.1669 13.039L13.1904 11.5646C13.2034 10.7536 13.2086 9.30298 13.2021 8.34096L13.1901 6.59185L13.2708 6.56372C13.4021 6.51796 13.5801 6.33568 13.6483 6.17709C13.7098 6.03407 13.7116 5.99894 13.703 5.10067C13.6932 4.06974 13.6969 4.09063 13.4876 3.88728C13.3812 3.78395 13.2387 3.70824 13.0922 3.67713C13.0194 3.66169 13.0164 3.65117 12.9659 3.22824C12.8408 2.18182 12.649 1.49815 12.3872 1.16569C12.2209 0.954397 11.7476 0.703264 11.211 0.541487C9.79241 0.113782 7.27792 -0.0952222 5.1981 0.0416821ZM10.2225 1.90162V2.42897H6.79478H3.36705V1.90162V1.37428H6.79478H10.2225V1.90162ZM11.4237 5.41725V7.84889H6.79478H2.16588V5.41725V2.98561H6.79478H11.4237V5.41725ZM3.8694 10.2462C4.08233 10.3493 4.23508 10.5003 4.338 10.7093C4.41971 10.8753 4.43249 10.9317 4.43216 11.1256C4.43076 12.0031 3.3829 12.422 2.76913 11.7905C2.46148 11.474 2.42041 10.9543 2.67368 10.5834C2.7788 10.4294 3.02805 10.2426 3.19127 10.1956C3.36087 10.1466 3.71893 10.1734 3.8694 10.2462ZM10.5784 10.2462C10.7913 10.3493 10.9441 10.5003 11.047 10.7093C11.129 10.876 11.1415 10.9316 11.1415 11.1301C11.1415 11.3287 11.129 11.3843 11.047 11.5509C10.6685 12.3197 9.55707 12.2545 9.26758 11.4465C9.1678 11.168 9.2314 10.7753 9.41536 10.5341C9.50823 10.4124 9.75558 10.2403 9.90163 10.1959C10.066 10.146 10.4266 10.1727 10.5784 10.2462Z" fill="#61064B"/>
</svg>
