<svg width="100" height="100" viewBox="0 0 100 100" fill="none" xmlns="http://www.w3.org/2000/svg">
<rect width="100" height="100" rx="10" fill="white"/>
<path d="M70.185 36.6473C67.0175 33.1552 64.0419 29.8571 64.0419 23.261C64.0419 22.582 63.466 22 62.7941 22H47.0524C46.3805 22 45.8045 22.582 45.8045 23.261C45.8045 28.1111 47.1483 31.4092 49.0681 34.0282H35.1501C34.4782 34.0282 33.9023 34.6102 33.9023 35.2892C33.9023 40.1393 35.3421 43.4374 37.1658 46.0564H23.2478C22.5759 46.0564 22 46.6384 22 47.3175C22 54.8836 25.4555 58.6667 28.719 62.3527C31.8866 65.8448 34.8621 69.1429 34.8621 75.739C34.8621 76.418 35.438 77 36.1099 77H51.9476C52.6195 77 53.1955 76.418 53.1955 75.739C53.1955 70.8889 51.8517 67.5908 49.9319 64.9718H63.8499C64.5218 64.9718 65.0977 64.3898 65.0977 63.7108C65.0977 58.8607 63.6579 55.5626 61.8342 52.9436H75.7522C76.4241 52.9436 77 52.3616 77 51.6825C76.904 44.1164 73.4485 40.3333 70.185 36.6473ZM37.2618 74.575C36.8778 67.7848 33.7103 64.1958 30.5428 60.8007C27.5672 57.5996 24.7836 54.4956 24.4956 48.6755H37.8377C38.2216 55.4656 41.3892 59.0547 44.5567 62.4497C47.5323 65.6508 50.3159 68.7548 50.6038 74.575H37.2618ZM46.3805 60.8007C43.6928 57.8907 41.1972 55.0776 40.4293 50.2275C40.5253 50.3245 40.5253 50.4215 40.6213 50.4215C43.3089 53.3316 45.8045 56.1446 46.5724 60.9947C46.4764 60.8977 46.3805 60.8007 46.3805 60.8007ZM49.164 62.5467C48.7801 55.7566 45.6126 52.1675 42.445 48.7725C39.4695 45.5714 36.6859 42.4674 36.3979 36.6473H49.74C50.1239 43.4374 53.2915 47.0265 56.459 50.4215C59.4346 53.6226 62.2182 56.7266 62.5061 62.5467H49.164ZM58.2827 48.7725C55.5951 45.8624 53.0995 43.0494 52.3316 38.1993C52.4276 38.2963 52.4276 38.2963 52.5236 38.3933C55.2112 41.3034 57.7068 44.1164 58.4747 48.9665C58.3787 48.8695 58.3787 48.7725 58.2827 48.7725ZM61.0663 50.5185C60.6824 43.7284 57.5148 40.1393 54.3473 36.7443C51.3717 33.5432 48.5881 30.4392 48.3002 24.619H61.6422C62.0262 31.4092 65.1937 34.9982 68.3613 38.3933C71.3368 41.5944 74.1204 44.6984 74.4084 50.5185H61.0663Z" fill="#06CA8C"/>
</svg>
