<svg width="20" height="20" viewBox="0 0 20 20" fill="none" xmlns="http://www.w3.org/2000/svg">
<path d="M9.16699 16.7917C4.9598 16.7917 1.54199 13.3739 1.54199 9.16675C1.54199 4.95956 4.9598 1.54175 9.16699 1.54175C13.3742 1.54175 16.792 4.95956 16.792 9.16675C16.792 13.3739 13.3742 16.7917 9.16699 16.7917ZM9.16699 1.79175C5.09918 1.79175 1.79199 5.09894 1.79199 9.16675C1.79199 13.2346 5.09918 16.5417 9.16699 16.5417C13.2348 16.5417 16.542 13.2346 16.542 9.16675C16.542 5.09894 13.2348 1.79175 9.16699 1.79175Z" fill="#292D32" stroke="#1A2820"/>
<path d="M16.7996 18.9917C16.7329 18.9917 16.6663 18.9833 16.6079 18.975C16.2163 18.925 15.5079 18.6583 15.1079 17.4667C14.8996 16.8417 14.9746 16.2167 15.3163 15.7417C15.6579 15.2667 16.2329 15 16.8913 15C17.7413 15 18.4079 15.325 18.7079 15.9C19.0079 16.475 18.9246 17.2083 18.4496 17.9167C17.8579 18.8083 17.2163 18.9917 16.7996 18.9917ZM16.2996 17.075C16.4413 17.5083 16.6413 17.725 16.7746 17.7417C16.9079 17.7583 17.1579 17.6 17.4163 17.225C17.6579 16.8667 17.6746 16.6083 17.6163 16.4917C17.5579 16.375 17.3246 16.25 16.8913 16.25C16.6329 16.25 16.4413 16.3333 16.3329 16.475C16.2329 16.6167 16.2163 16.8333 16.2996 17.075Z" fill="#292D32"/>
</svg>
