<svg width="16" height="16" viewBox="0 0 16 16" fill="none" xmlns="http://www.w3.org/2000/svg">
<path d="M5.93974 13.4187C5.81307 13.4187 5.68641 13.375 5.58641 13.2812C5.39307 13.1 5.39307 12.8 5.58641 12.6187L9.93307 8.5437C10.2531 8.2437 10.2531 7.7562 9.93307 7.4562L5.58641 3.3812C5.39307 3.19995 5.39307 2.89995 5.58641 2.7187C5.77974 2.53745 6.09974 2.53745 6.29307 2.7187L10.6397 6.7937C10.9797 7.11245 11.1731 7.5437 11.1731 7.99995C11.1731 8.4562 10.9864 8.88745 10.6397 9.2062L6.29307 13.2812C6.19307 13.3687 6.06641 13.4187 5.93974 13.4187Z" fill="white"/>
</svg>
