<svg width="25" height="25" viewBox="0 0 25 25" fill="none" xmlns="http://www.w3.org/2000/svg">
<path d="M12.4997 22.9168C6.74655 22.9168 2.08301 18.2533 2.08301 12.5002C2.08301 6.74704 6.74655 2.0835 12.4997 2.0835C18.2528 2.0835 22.9163 6.74704 22.9163 12.5002C22.9163 18.2533 18.2528 22.9168 12.4997 22.9168ZM12.4997 20.8335C14.7098 20.8335 16.8294 19.9555 18.3922 18.3927C19.955 16.8299 20.833 14.7103 20.833 12.5002C20.833 10.29 19.955 8.17041 18.3922 6.60761C16.8294 5.0448 14.7098 4.16683 12.4997 4.16683C10.2895 4.16683 8.16992 5.0448 6.60712 6.60761C5.04432 8.17041 4.16634 10.29 4.16634 12.5002C4.16634 14.7103 5.04432 16.8299 6.60712 18.3927C8.16992 19.9555 10.2895 20.8335 12.4997 20.8335ZM7.29134 13.5418H9.37467C9.37467 14.3706 9.70391 15.1655 10.29 15.7515C10.876 16.3376 11.6709 16.6668 12.4997 16.6668C13.3285 16.6668 14.1233 16.3376 14.7094 15.7515C15.2954 15.1655 15.6247 14.3706 15.6247 13.5418H17.708C17.708 14.9232 17.1593 16.2479 16.1825 17.2247C15.2058 18.2014 13.881 18.7502 12.4997 18.7502C11.1183 18.7502 9.79358 18.2014 8.81683 17.2247C7.84008 16.2479 7.29134 14.9232 7.29134 13.5418ZM8.33301 11.4585C7.91861 11.4585 7.52118 11.2939 7.22815 11.0009C6.93513 10.7078 6.77051 10.3104 6.77051 9.896C6.77051 9.4816 6.93513 9.08417 7.22815 8.79114C7.52118 8.49812 7.91861 8.3335 8.33301 8.3335C8.74741 8.3335 9.14484 8.49812 9.43786 8.79114C9.73089 9.08417 9.89551 9.4816 9.89551 9.896C9.89551 10.3104 9.73089 10.7078 9.43786 11.0009C9.14484 11.2939 8.74741 11.4585 8.33301 11.4585ZM16.6663 11.4585C16.2519 11.4585 15.8545 11.2939 15.5615 11.0009C15.2685 10.7078 15.1038 10.3104 15.1038 9.896C15.1038 9.4816 15.2685 9.08417 15.5615 8.79114C15.8545 8.49812 16.2519 8.3335 16.6663 8.3335C17.0807 8.3335 17.4782 8.49812 17.7712 8.79114C18.0642 9.08417 18.2288 9.4816 18.2288 9.896C18.2288 10.3104 18.0642 10.7078 17.7712 11.0009C17.4782 11.2939 17.0807 11.4585 16.6663 11.4585Z" fill="#F2994A"/>
</svg>
