<svg width="312" height="68" viewBox="0 0 312 68" fill="none" xmlns="http://www.w3.org/2000/svg">
<path d="M11.5704 47.4305L12.1598 54.6979L5.59081 51.5088L2.53738 53.5914L12.4825 58.0994L15.9038 63.1158L18.6119 61.2688L15.1906 56.2524L14.6239 45.348L11.5704 47.4305Z" fill="white"/>
<path d="M19.9949 51.1976C22.2166 55.0723 27.0659 56.3907 31.0134 53.9467C35.0507 51.6541 36.2184 46.7663 33.8831 42.959C31.6614 39.0843 26.7896 37.728 22.8421 40.172C18.8048 42.4646 17.6596 47.3902 19.9949 51.1976ZM30.9692 44.6875C32.4396 47.1662 31.8562 49.8912 29.4532 51.3166C27.0502 52.7421 24.3791 51.9477 22.9087 49.469C21.4384 46.9903 21.9993 44.2275 24.4023 42.802C26.8053 41.3766 29.4989 42.2088 30.9692 44.6875Z" fill="white"/>
<path d="M36.6075 43.9549C38.3191 47.3297 41.6883 48.0876 45.1612 46.3262C48.6144 44.5748 49.9934 41.4086 48.2818 38.0339L43.8833 29.3615L40.9794 30.8343L45.2684 39.2908C46.1939 41.1156 45.6615 42.6436 43.7779 43.599C41.8944 44.5543 40.3273 44.091 39.4019 42.2663L35.1128 33.8098L32.209 35.2826L36.6075 43.9549Z" fill="white"/>
<path d="M50.0516 26.3677L47.1615 27.6653L48.5218 33.5417L50.9302 32.4604L50.0516 26.3677Z" fill="white"/>
<path d="M64.3721 20.8826L64.869 33.2225L56.8215 23.8642L53.5884 25.1408L64.5442 37.3718L67.9614 36.0224L67.5847 19.6141L64.3721 20.8826Z" fill="white"/>
<path d="M76.7862 29.8279L75.7293 26.6089L82.7107 24.3169L81.8049 21.5578L74.8235 23.8498L73.8078 20.7563L81.2909 18.2995L80.3782 15.5195L69.8225 18.9851L74.6262 33.6167L85.3909 30.0825L84.4782 27.3025L76.7862 29.8279Z" fill="white"/>
<path d="M100.521 17.2198L101.139 19.877L104.374 19.1254L104.937 21.547C104.257 22.3147 103.277 22.8586 101.969 23.1622C98.8836 23.879 96.639 22.4806 95.9422 19.4805C95.2652 16.5661 96.6073 14.1764 99.3289 13.5443C100.808 13.2008 102.206 13.4857 103.301 14.406L105.379 12.0713C103.724 10.4907 101.316 9.94338 98.6584 10.5606C94.0626 11.5829 91.5275 15.7403 92.637 20.2256C93.6823 24.7258 97.5676 27.2563 102.496 26.1115C105.175 25.4893 107.308 23.9774 108.166 22.1294L106.693 15.7862L100.521 17.2198Z" fill="white"/>
<path d="M108.407 16.7122C109.063 21.1302 113.097 24.126 117.664 23.2895C122.26 22.6267 125.129 18.5011 124.343 14.1044C123.687 9.68637 119.645 6.6472 115.078 7.48369C110.483 8.14648 107.62 12.3154 108.407 16.7122ZM120.999 14.6515C121.465 17.4957 119.928 19.8204 117.17 20.2716C114.413 20.7228 112.216 19.0092 111.75 16.165C111.285 13.3209 112.814 10.9528 115.572 10.5015C118.329 10.0503 120.534 11.8074 120.999 14.6515Z" fill="white"/>
<path d="M130.612 21.3347L133.83 21.0103L132.587 8.68674L137.162 8.22552L136.86 5.22672L124.47 6.47578L124.773 9.47458L129.37 9.01114L130.612 21.3347Z" fill="white"/>
<path d="M147.999 20.193L151.253 20.1042L150.833 4.70993L147.579 4.79872L147.999 20.193Z" fill="white"/>
<path d="M167.363 4.88221L167.13 15.0435L159.819 4.70892L156.762 4.6387L156.408 20.0346L159.619 20.1084L159.852 9.96907L167.141 20.2812L170.198 20.3514L170.552 4.95547L167.363 4.88221Z" fill="white"/>
<path d="M171.964 17.4476C172.858 19.6651 175.181 21.1651 178.272 21.4275C182.086 21.7513 184.488 19.9901 184.734 17.0965C184.925 14.8386 183.645 13.2727 180.919 12.3568L178.426 11.5491C176.817 10.993 176.287 10.4843 176.352 9.71704C176.434 8.75251 177.364 8.19124 179.03 8.33267C180.631 8.46852 181.834 9.12262 182.637 10.3169L185.044 8.75488C184.205 6.93937 182.06 5.67541 179.32 5.4428C175.659 5.13202 173.285 6.82929 173.058 9.50367C172.872 11.6958 174.19 13.3312 177.024 14.2783L179.451 15.0804C180.978 15.5633 181.503 16.1378 181.43 16.9927C181.336 18.1107 180.337 18.6883 178.605 18.5413C176.698 18.3794 175.169 17.4105 174.391 15.9094L171.964 17.4476Z" fill="white"/>
<path d="M190.264 22.5241L193.467 22.9775L195.203 10.7139L199.756 11.3585L200.178 8.37431L187.849 6.62846L187.427 9.61269L192.001 10.2604L190.264 22.5241Z" fill="white"/>
<path d="M210.844 26.2453L214.186 26.9211L211.394 10.645L207.729 9.9037L198.854 23.8209L202.197 24.4967L204.071 21.4417L210.303 22.7019L210.844 26.2453ZM205.587 18.9425L208.938 13.4701L209.878 19.8102L205.587 18.9425Z" fill="white"/>
<path d="M229.881 15.3245L227.228 25.1361L222.597 13.3546L219.645 12.5563L215.625 27.4223L218.725 28.2608L221.373 18.4705L225.988 30.225L228.94 31.0233L232.961 16.1573L229.881 15.3245Z" fill="white"/>
<path d="M234.545 33.0035L237.611 34.0343L241.559 22.2944L245.917 23.7599L246.877 20.9031L235.075 16.9342L234.114 19.7909L238.493 21.2635L234.545 33.0035Z" fill="white"/>
<path d="M253.164 31.72C251.28 35.8666 252.964 40.4197 257.244 42.2179C260.127 43.4776 263.015 43.1311 265.257 41.1335L263.298 38.693C261.856 39.9597 260.162 40.1557 258.529 39.4422C256.029 38.3499 255.133 35.6771 256.278 33.0564C257.423 30.4357 259.993 29.2781 262.493 30.3704C264.126 31.084 265.113 32.4516 265.163 34.3701L268.305 34.1583C268.248 31.1564 266.54 28.8015 263.657 27.5419C259.41 25.6139 254.919 27.5407 253.164 31.72Z" fill="white"/>
<path d="M274.569 50.4245L277.602 51.9844L279.345 35.5629L276.019 33.852L263.692 44.829L266.725 46.3889L269.36 43.9593L275.014 46.8678L274.569 50.4245ZM271.498 41.9668L276.212 37.6129L275.391 43.9695L271.498 41.9668Z" fill="white"/>
<path d="M279.508 49.6385C279.346 52.0238 280.784 54.3861 283.452 55.9687C286.745 57.9217 289.674 57.3826 291.155 54.885C292.311 52.9361 291.841 50.9689 289.786 48.9569L287.894 47.144C286.688 45.9427 286.432 45.2535 286.825 44.5912C287.319 43.7587 288.401 43.6589 289.839 44.512C291.221 45.3314 292.018 46.4442 292.222 47.8693L295.069 47.5117C295.104 45.5119 293.724 43.4398 291.359 42.0368C288.199 40.1624 285.323 40.656 283.953 42.9644C282.831 44.8565 283.305 46.9029 285.444 48.9899L287.279 50.7692C288.442 51.8688 288.665 52.6148 288.227 53.3527C287.655 54.3177 286.504 54.4027 285.01 53.516C283.364 52.5395 282.409 51.0011 282.363 49.311L279.508 49.6385Z" fill="white"/>
<path d="M307.981 53.2054L304.599 58.1951L298.954 54.3685L302.336 49.3788L299.641 47.5519L291 60.2994L293.695 62.1263L297.275 56.8452L302.92 60.6718L299.341 65.9529L302.018 67.7674L310.658 55.0199L307.981 53.2054Z" fill="white"/>
</svg>
