<svg width="18" height="18" viewBox="0 0 18 18" fill="none" xmlns="http://www.w3.org/2000/svg">
<path fill-rule="evenodd" clip-rule="evenodd" d="M9.62533 3.16675C9.62533 2.82157 9.3455 2.54175 9.00033 2.54175C8.65515 2.54175 8.37533 2.82157 8.37533 3.16675V3.42349C8.10303 3.4918 7.83584 3.59853 7.58144 3.74541C5.31323 5.05497 5.60151 8.41583 8.0596 9.31997L8.37533 9.43612V13.3496C7.9296 13.2239 7.53137 12.9309 7.28204 12.499L6.96907 11.957C6.79648 11.658 6.41423 11.5556 6.1153 11.7282C5.81637 11.9008 5.71394 12.283 5.88653 12.582L6.1995 13.124C6.68155 13.959 7.49422 14.4831 8.37533 14.628V14.8334C8.37533 15.1786 8.65515 15.4584 9.00033 15.4584C9.3455 15.4584 9.62533 15.1786 9.62533 14.8334V14.5767C9.89768 14.5084 10.1649 14.4017 10.4194 14.2548C12.6876 12.9452 12.3993 9.58433 9.94121 8.68019L9.62533 8.56401L9.62533 4.65051C10.0711 4.77621 10.4694 5.06921 10.7188 5.50113L11.0318 6.04321C11.2044 6.34214 11.5866 6.44456 11.8855 6.27197C12.1845 6.09938 12.2869 5.71714 12.1143 5.41821L11.8013 4.87613C11.3192 4.04114 10.5065 3.51701 9.62533 3.37216V3.16675ZM8.20644 4.82794C8.26191 4.79592 8.31827 4.76714 8.37533 4.74152L8.37533 8.10003C7.01951 7.50129 6.89252 5.58653 8.20644 4.82794ZM9.79439 13.1722C9.73887 13.2043 9.68245 13.2331 9.62533 13.2587V9.90006C10.9813 10.4987 11.1084 12.4136 9.79439 13.1722Z" fill="#22BCD0"/>
<path fill-rule="evenodd" clip-rule="evenodd" d="M9.00033 0.041748C4.05277 0.041748 0.0419922 4.05253 0.0419922 9.00008C0.0419922 13.9476 4.05277 17.9584 9.00033 17.9584C13.9479 17.9584 17.9587 13.9476 17.9587 9.00008C17.9587 4.05253 13.9479 0.041748 9.00033 0.041748ZM1.29199 9.00008C1.29199 4.74289 4.74313 1.29175 9.00033 1.29175C13.2575 1.29175 16.7087 4.74289 16.7087 9.00008C16.7087 13.2573 13.2575 16.7084 9.00033 16.7084C4.74313 16.7084 1.29199 13.2573 1.29199 9.00008Z" fill="#22BCD0"/>
</svg>
