<svg width="20" height="20" viewBox="0 0 20 20" fill="none" xmlns="http://www.w3.org/2000/svg">
<path d="M17.5003 9.79178H2.50033C1.70033 9.79178 1.04199 9.13345 1.04199 8.33345V5.56677C1.04199 5.00011 1.43364 4.42511 1.95864 4.21678L9.45864 1.2168C9.77531 1.0918 10.2253 1.0918 10.542 1.2168L18.042 4.21678C18.567 4.42511 18.9587 5.00844 18.9587 5.56677V8.33345C18.9587 9.13345 18.3003 9.79178 17.5003 9.79178ZM10.0003 2.3668C9.96699 2.3668 9.93368 2.36676 9.91701 2.37509L2.4253 5.37512C2.3753 5.40012 2.29199 5.50844 2.29199 5.56677V8.33345C2.29199 8.45011 2.38366 8.54178 2.50033 8.54178H17.5003C17.617 8.54178 17.7087 8.45011 17.7087 8.33345V5.56677C17.7087 5.50844 17.6337 5.40012 17.5753 5.37512L10.0753 2.37509C10.0587 2.36676 10.0337 2.3668 10.0003 2.3668Z" fill="#F7931A"/>
<path d="M18.3337 18.9583H1.66699C1.32533 18.9583 1.04199 18.675 1.04199 18.3333V15.8333C1.04199 15.0333 1.70033 14.375 2.50033 14.375H17.5003C18.3003 14.375 18.9587 15.0333 18.9587 15.8333V18.3333C18.9587 18.675 18.6753 18.9583 18.3337 18.9583ZM2.29199 17.7083H17.7087V15.8333C17.7087 15.7167 17.617 15.625 17.5003 15.625H2.50033C2.38366 15.625 2.29199 15.7167 2.29199 15.8333V17.7083Z" fill="#F7931A"/>
<path d="M3.33301 15.6251C2.99134 15.6251 2.70801 15.3417 2.70801 15.0001V9.16675C2.70801 8.82508 2.99134 8.54175 3.33301 8.54175C3.67467 8.54175 3.95801 8.82508 3.95801 9.16675V15.0001C3.95801 15.3417 3.67467 15.6251 3.33301 15.6251Z" fill="#F7931A"/>
<path d="M6.66699 15.6251C6.32533 15.6251 6.04199 15.3417 6.04199 15.0001V9.16675C6.04199 8.82508 6.32533 8.54175 6.66699 8.54175C7.00866 8.54175 7.29199 8.82508 7.29199 9.16675V15.0001C7.29199 15.3417 7.00866 15.6251 6.66699 15.6251Z" fill="#F7931A"/>
<path d="M10 15.6251C9.65833 15.6251 9.375 15.3417 9.375 15.0001V9.16675C9.375 8.82508 9.65833 8.54175 10 8.54175C10.3417 8.54175 10.625 8.82508 10.625 9.16675V15.0001C10.625 15.3417 10.3417 15.6251 10 15.6251Z" fill="#F7931A"/>
<path d="M13.333 15.6251C12.9913 15.6251 12.708 15.3417 12.708 15.0001V9.16675C12.708 8.82508 12.9913 8.54175 13.333 8.54175C13.6747 8.54175 13.958 8.82508 13.958 9.16675V15.0001C13.958 15.3417 13.6747 15.6251 13.333 15.6251Z" fill="#F7931A"/>
<path d="M16.667 15.6251C16.3253 15.6251 16.042 15.3417 16.042 15.0001V9.16675C16.042 8.82508 16.3253 8.54175 16.667 8.54175C17.0087 8.54175 17.292 8.82508 17.292 9.16675V15.0001C17.292 15.3417 17.0087 15.6251 16.667 15.6251Z" fill="#F7931A"/>
<path d="M19.1663 18.9583H0.833008C0.491341 18.9583 0.208008 18.6749 0.208008 18.3333C0.208008 17.9916 0.491341 17.7083 0.833008 17.7083H19.1663C19.508 17.7083 19.7913 17.9916 19.7913 18.3333C19.7913 18.6749 19.508 18.9583 19.1663 18.9583Z" fill="#F7931A"/>
<path d="M10 7.70825C8.96667 7.70825 8.125 6.86659 8.125 5.83325C8.125 4.79992 8.96667 3.95825 10 3.95825C11.0333 3.95825 11.875 4.79992 11.875 5.83325C11.875 6.86659 11.0333 7.70825 10 7.70825ZM10 5.20825C9.65833 5.20825 9.375 5.49159 9.375 5.83325C9.375 6.17492 9.65833 6.45825 10 6.45825C10.3417 6.45825 10.625 6.17492 10.625 5.83325C10.625 5.49159 10.3417 5.20825 10 5.20825Z" fill="#F7931A"/>
</svg>
