<svg width="18" height="18" viewBox="0 0 18 18" fill="none" xmlns="http://www.w3.org/2000/svg">
<path d="M9.62533 8.16675C9.62533 7.82157 9.3455 7.54175 9.00033 7.54175C8.65515 7.54175 8.37533 7.82157 8.37533 8.16675V13.1667C8.37533 13.5119 8.65515 13.7917 9.00033 13.7917C9.3455 13.7917 9.62533 13.5119 9.62533 13.1667V8.16675Z" fill="#EE4ABD"/>
<path fill-rule="evenodd" clip-rule="evenodd" d="M9.00033 0.041748C4.05277 0.041748 0.0419922 4.05253 0.0419922 9.00008C0.0419922 13.9476 4.05277 17.9584 9.00033 17.9584C13.9479 17.9584 17.9587 13.9476 17.9587 9.00008C17.9587 4.05253 13.9479 0.041748 9.00033 0.041748ZM1.29199 9.00008C1.29199 4.74289 4.74313 1.29175 9.00033 1.29175C13.2575 1.29175 16.7087 4.74289 16.7087 9.00008C16.7087 13.2573 13.2575 16.7084 9.00033 16.7084C4.74313 16.7084 1.29199 13.2573 1.29199 9.00008Z" fill="#EE4ABD"/>
<path d="M9.83366 5.66675C9.83366 6.12699 9.46056 6.50008 9.00032 6.50008C8.54009 6.50008 8.16699 6.12699 8.16699 5.66675C8.16699 5.20651 8.54009 4.83342 9.00032 4.83342C9.46056 4.83342 9.83366 5.20651 9.83366 5.66675Z" fill="#EE4ABD"/>
</svg>
