<svg width="40" height="40" viewBox="0 0 40 40" fill="none" xmlns="http://www.w3.org/2000/svg">
<circle cx="20" cy="20" r="20" fill="white"/>
<circle cx="20" cy="20" r="19.5" stroke="#06CA8C" stroke-opacity="0.3"/>
<path d="M27.5003 19.7918H12.5003C11.7003 19.7918 11.042 19.1334 11.042 18.3334V15.5668C11.042 15.0001 11.4336 14.4251 11.9586 14.2168L19.4586 11.2168C19.7753 11.0918 20.2253 11.0918 20.542 11.2168L28.042 14.2168C28.567 14.4251 28.9587 15.0084 28.9587 15.5668V18.3334C28.9587 19.1334 28.3003 19.7918 27.5003 19.7918ZM20.0003 12.3668C19.967 12.3668 19.9337 12.3668 19.917 12.3751L12.4253 15.3751C12.3753 15.4001 12.292 15.5084 12.292 15.5668V18.3334C12.292 18.4501 12.3837 18.5418 12.5003 18.5418H27.5003C27.617 18.5418 27.7087 18.4501 27.7087 18.3334V15.5668C27.7087 15.5084 27.6337 15.4001 27.5753 15.3751L20.0753 12.3751C20.0587 12.3668 20.0337 12.3668 20.0003 12.3668Z" fill="#06CA8C"/>
<path d="M28.3337 28.9583H11.667C11.3253 28.9583 11.042 28.675 11.042 28.3333V25.8333C11.042 25.0333 11.7003 24.375 12.5003 24.375H27.5003C28.3003 24.375 28.9587 25.0333 28.9587 25.8333V28.3333C28.9587 28.675 28.6753 28.9583 28.3337 28.9583ZM12.292 27.7083H27.7087V25.8333C27.7087 25.7167 27.617 25.625 27.5003 25.625H12.5003C12.3837 25.625 12.292 25.7167 12.292 25.8333V27.7083Z" fill="#06CA8C"/>
<path d="M13.333 25.6251C12.9913 25.6251 12.708 25.3417 12.708 25.0001V19.1667C12.708 18.8251 12.9913 18.5417 13.333 18.5417C13.6747 18.5417 13.958 18.8251 13.958 19.1667V25.0001C13.958 25.3417 13.6747 25.6251 13.333 25.6251Z" fill="#06CA8C"/>
<path d="M16.667 25.6251C16.3253 25.6251 16.042 25.3417 16.042 25.0001V19.1667C16.042 18.8251 16.3253 18.5417 16.667 18.5417C17.0087 18.5417 17.292 18.8251 17.292 19.1667V25.0001C17.292 25.3417 17.0087 25.6251 16.667 25.6251Z" fill="#06CA8C"/>
<path d="M20 25.6251C19.6583 25.6251 19.375 25.3417 19.375 25.0001V19.1667C19.375 18.8251 19.6583 18.5417 20 18.5417C20.3417 18.5417 20.625 18.8251 20.625 19.1667V25.0001C20.625 25.3417 20.3417 25.6251 20 25.6251Z" fill="#06CA8C"/>
<path d="M23.333 25.6251C22.9913 25.6251 22.708 25.3417 22.708 25.0001V19.1667C22.708 18.8251 22.9913 18.5417 23.333 18.5417C23.6747 18.5417 23.958 18.8251 23.958 19.1667V25.0001C23.958 25.3417 23.6747 25.6251 23.333 25.6251Z" fill="#06CA8C"/>
<path d="M26.667 25.6251C26.3253 25.6251 26.042 25.3417 26.042 25.0001V19.1667C26.042 18.8251 26.3253 18.5417 26.667 18.5417C27.0087 18.5417 27.292 18.8251 27.292 19.1667V25.0001C27.292 25.3417 27.0087 25.6251 26.667 25.6251Z" fill="#06CA8C"/>
<path d="M29.1663 28.9583H10.833C10.4913 28.9583 10.208 28.6749 10.208 28.3333C10.208 27.9916 10.4913 27.7083 10.833 27.7083H29.1663C29.508 27.7083 29.7913 27.9916 29.7913 28.3333C29.7913 28.6749 29.508 28.9583 29.1663 28.9583Z" fill="#06CA8C"/>
<path d="M20 17.7083C18.9667 17.7083 18.125 16.8666 18.125 15.8333C18.125 14.7999 18.9667 13.9583 20 13.9583C21.0333 13.9583 21.875 14.7999 21.875 15.8333C21.875 16.8666 21.0333 17.7083 20 17.7083ZM20 15.2083C19.6583 15.2083 19.375 15.4916 19.375 15.8333C19.375 16.1749 19.6583 16.4583 20 16.4583C20.3417 16.4583 20.625 16.1749 20.625 15.8333C20.625 15.4916 20.3417 15.2083 20 15.2083Z" fill="#06CA8C"/>
</svg>
