<svg width="16" height="20" viewBox="0 0 16 20" fill="none" xmlns="http://www.w3.org/2000/svg">
<path d="M4.66634 5.00008C4.66634 3.15913 6.15873 1.66675 7.99967 1.66675C9.84062 1.66675 11.333 3.15913 11.333 5.00008V5.83342H4.66634V5.00008Z" fill="#EB5757"/>
<path d="M13.4307 10.6497L14.1735 10.753L13.4307 10.6497ZM13.2121 12.2205L13.9549 12.3239L13.2121 12.2205ZM2.78729 12.2205L3.53013 12.1171L2.78729 12.2205ZM2.56868 10.6497L1.82583 10.753L2.56868 10.6497ZM5.65271 18.1141L5.36112 18.8051L5.65271 18.1141ZM3.39558 15.467L4.09956 15.2084L3.39558 15.467ZM12.6038 15.467L13.3078 15.7257H13.3078L12.6038 15.467ZM10.3466 18.1141L10.055 17.4231L10.3466 18.1141ZM2.91298 7.42914C2.8738 7.01678 2.50776 6.71426 2.0954 6.75344C1.68304 6.79262 1.38052 7.15867 1.4197 7.57102L2.91298 7.42914ZM14.5796 7.57102C14.6188 7.15867 14.3163 6.79262 13.9039 6.75344C13.4916 6.71426 13.1256 7.01678 13.0864 7.42914L14.5796 7.57102ZM14.6663 6.58342C15.0806 6.58342 15.4163 6.24763 15.4163 5.83342C15.4163 5.4192 15.0806 5.08342 14.6663 5.08342V6.58342ZM1.33301 5.08342C0.918794 5.08342 0.583008 5.4192 0.583008 5.83342C0.583008 6.24763 0.918794 6.58342 1.33301 6.58342V5.08342ZM5.58301 15.0001C5.58301 15.4143 5.91879 15.7501 6.33301 15.7501C6.74722 15.7501 7.08301 15.4143 7.08301 15.0001H5.58301ZM7.08301 8.33342C7.08301 7.9192 6.74722 7.58342 6.33301 7.58342C5.91879 7.58342 5.58301 7.9192 5.58301 8.33342H7.08301ZM8.91634 15.0001C8.91634 15.4143 9.25213 15.7501 9.66634 15.7501C10.0806 15.7501 10.4163 15.4143 10.4163 15.0001H8.91634ZM10.4163 8.33342C10.4163 7.9192 10.0806 7.58342 9.66634 7.58342C9.25213 7.58342 8.91634 7.9192 8.91634 8.33342H10.4163ZM11.333 5.83342V6.58342H12.083V5.83342H11.333ZM4.66634 5.83342H3.91634V6.58342H4.66634V5.83342ZM12.6878 10.5463L12.4692 12.1171L13.9549 12.3239L14.1735 10.753L12.6878 10.5463ZM3.53013 12.1171L3.31152 10.5463L1.82583 10.753L2.04445 12.3239L3.53013 12.1171ZM7.99967 17.5834C6.71414 17.5834 6.29056 17.5692 5.9443 17.4231L5.36112 18.8051C6.05427 19.0976 6.84888 19.0834 7.99967 19.0834V17.5834ZM2.04445 12.3239C2.27663 13.9923 2.40494 14.9455 2.69159 15.7257L4.09956 15.2084C3.88243 14.6174 3.77314 13.8633 3.53013 12.1171L2.04445 12.3239ZM5.9443 17.4231C5.21623 17.1159 4.52125 16.3561 4.09956 15.2084L2.69159 15.7257C3.21199 17.1421 4.14549 18.2921 5.36112 18.8051L5.9443 17.4231ZM12.4692 12.1171C12.2262 13.8633 12.1169 14.6174 11.8998 15.2084L13.3078 15.7257C13.5944 14.9455 13.7227 13.9923 13.9549 12.3239L12.4692 12.1171ZM7.99967 19.0834C9.15047 19.0834 9.94508 19.0976 10.6382 18.8051L10.055 17.4231C9.70879 17.5692 9.28521 17.5834 7.99967 17.5834V19.0834ZM11.8998 15.2084C11.4781 16.3561 10.7831 17.1159 10.055 17.4231L10.6382 18.8051C11.8539 18.2921 12.7874 17.1421 13.3078 15.7257L11.8998 15.2084ZM3.31152 10.5463C3.12627 9.21515 2.98851 8.22411 2.91298 7.42914L1.4197 7.57102C1.49904 8.40605 1.64236 9.43467 1.82583 10.753L3.31152 10.5463ZM14.1735 10.753C14.357 9.43466 14.5003 8.40605 14.5796 7.57102L13.0864 7.42914C13.0108 8.22411 12.8731 9.21514 12.6878 10.5463L14.1735 10.753ZM14.6663 5.08342H1.33301V6.58342H14.6663V5.08342ZM7.08301 15.0001V8.33342H5.58301V15.0001H7.08301ZM10.4163 15.0001V8.33342H8.91634V15.0001H10.4163ZM10.583 5.00008V5.83342H12.083V5.00008H10.583ZM11.333 5.08342H4.66634V6.58342H11.333V5.08342ZM5.41634 5.83342V5.00008H3.91634V5.83342H5.41634ZM7.99967 2.41675C9.42641 2.41675 10.583 3.57335 10.583 5.00008H12.083C12.083 2.74492 10.2548 0.916748 7.99967 0.916748V2.41675ZM7.99967 0.916748C5.74451 0.916748 3.91634 2.74492 3.91634 5.00008H5.41634C5.41634 3.57335 6.57294 2.41675 7.99967 2.41675V0.916748Z" fill="#EB5757"/>
</svg>
