<svg width="20" height="20" viewBox="0 0 20 20" fill="none" xmlns="http://www.w3.org/2000/svg">
<path d="M9.66019 2.72984C9.88605 2.70106 10.1146 2.70106 10.3405 2.72984C10.8556 2.7955 11.2847 3.04127 11.7074 3.3808C12.114 3.7073 12.5703 4.1677 13.1286 4.73101L14.6109 6.22662C14.8539 6.47178 14.8521 6.86751 14.607 7.11049C14.3618 7.35348 13.9661 7.35171 13.7231 7.10655L12.267 5.63741C11.676 5.04117 11.2693 4.63216 10.9247 4.35541C10.8127 4.26547 10.7142 4.1953 10.6253 4.14082L10.6253 16.6666C10.6253 17.0118 10.3455 17.2916 10.0003 17.2916C9.65515 17.2916 9.37533 17.0118 9.37533 16.6666L9.37532 4.14082C9.28649 4.1953 9.1879 4.26547 9.07591 4.35541C8.73131 4.63216 8.32461 5.04116 7.73366 5.63741L6.27757 7.10655C6.03458 7.35172 5.63886 7.35348 5.39369 7.1105C5.14853 6.86751 5.14676 6.47178 5.38975 6.22662L6.87208 4.731C7.43037 4.16769 7.88665 3.7073 8.29321 3.3808C8.71598 3.04127 9.1451 2.7955 9.66019 2.72984Z" fill="#06CA8C"/>
</svg>
