<svg width="24" height="23" viewBox="0 0 24 23" fill="none" xmlns="http://www.w3.org/2000/svg">
<path d="M6.29318 3.96556C8.95999 2.028 10.2934 1.05923 11.8162 1.00336C11.9384 0.99888 12.0607 0.99888 12.1828 1.00336C13.7056 1.05923 15.039 2.028 17.7059 3.96556C20.3727 5.90311 21.7061 6.87189 22.2298 8.30291C22.2718 8.41771 22.3096 8.534 22.3431 8.65157C22.7605 10.1171 22.2512 11.6846 21.2326 14.8197L19.5115 20.1164C19.2381 20.958 18.4538 21.5279 17.5689 21.5279C16.4408 21.5279 15.5262 20.6133 15.5262 19.4852V16.7363C15.5262 15.6778 14.6681 14.8197 13.6096 14.8197H10.3894C9.33091 14.8197 8.47281 15.6778 8.47281 16.7363V19.4852C8.47281 20.6133 7.55828 21.5279 6.43016 21.5279C5.54524 21.5279 4.76095 20.958 4.48749 20.1164L2.76647 14.8197C1.74783 11.6846 1.23852 10.1171 1.65596 8.65157C1.68945 8.534 1.72724 8.41771 1.76925 8.30291C2.29295 6.87189 3.62636 5.90311 6.29318 3.96556Z" stroke="#A1A6A4" stroke-width="1.5"/>
</svg>
