<svg width="50" height="50" viewBox="0 0 50 50" fill="none" xmlns="http://www.w3.org/2000/svg">
<rect x="0.5" y="0.5" width="49" height="49" rx="9.5" fill="white" stroke="#E6EBE9"/>
<path d="M27.528 20.5327C27.8222 20.2411 27.8243 19.7662 27.5327 19.472C27.2411 19.1778 26.7662 19.1757 26.472 19.4673L24.6773 21.2461C24.0013 21.916 23.4489 22.4636 23.0571 22.9515C22.6496 23.4588 22.3547 23.9737 22.2759 24.5918C22.2414 24.8629 22.2414 25.1371 22.2759 25.4082C22.3547 26.0263 22.6496 26.5412 23.0571 27.0485C23.4489 27.5364 24.0013 28.084 24.6773 28.7539L26.472 30.5327C26.7662 30.8243 27.2411 30.8222 27.5327 30.528C27.8243 30.2338 27.8222 29.7589 27.528 29.4673L25.765 27.72C25.0495 27.0109 24.5587 26.5228 24.2266 26.1093C23.904 25.7076 23.7933 25.4496 23.7639 25.2185C23.7454 25.0734 23.7454 24.9266 23.7639 24.7815C23.7933 24.5504 23.904 24.2924 24.2266 23.8907C24.5587 23.4772 25.0495 22.9891 25.765 22.28L27.528 20.5327Z" fill="#2D264B"/>
</svg>
