<svg width="284" height="96" viewBox="0 0 284 96" fill="none" xmlns="http://www.w3.org/2000/svg">
<path d="M12.2483 81.9087C16.6012 85.4152 22.5277 84.8053 25.9731 80.2675C28.3514 77.226 28.8223 73.6869 27.1328 70.4123L23.6335 71.9946C24.6984 74.0954 24.4136 76.1691 23.0665 77.892C21.0042 80.5294 17.5533 80.7786 14.7882 78.6165C12.0232 76.4544 11.4329 73.0453 13.4952 70.4078C14.8423 68.685 16.7695 67.9298 19.0652 68.4567L19.7736 64.6578C16.1881 63.8079 12.8671 65.1183 10.4888 68.1599C6.89913 72.6191 7.81684 78.5464 12.2483 81.9087Z" fill="white"/>
<path d="M12.2483 81.9087L12.8756 81.1299L12.8643 81.1208L12.8527 81.112L12.2483 81.9087ZM25.9731 80.2675L25.1853 79.6516L25.1809 79.6572L25.1766 79.6628L25.9731 80.2675ZM27.1328 70.4123L28.0215 69.9538L27.5861 69.1098L26.7208 69.5011L27.1328 70.4123ZM23.6335 71.9946L23.2215 71.0834L22.2688 71.5142L22.7415 72.4467L23.6335 71.9946ZM19.0652 68.4567L18.8415 69.4314L19.8572 69.6645L20.0482 68.64L19.0652 68.4567ZM19.7736 64.6578L20.7566 64.8411L20.9313 63.9045L20.0042 63.6848L19.7736 64.6578ZM10.4888 68.1599L11.2678 68.7869L11.2722 68.7814L11.2766 68.7758L10.4888 68.1599ZM11.6209 82.6874C16.4014 86.5383 22.9746 85.8704 26.7695 80.8722L25.1766 79.6628C22.0807 83.7403 16.801 84.292 12.8756 81.1299L11.6209 82.6874ZM26.7608 80.8835C29.3524 77.5693 29.9096 73.6134 28.0215 69.9538L26.2441 70.8708C27.735 73.7604 27.3504 76.8827 25.1853 79.6516L26.7608 80.8835ZM26.7208 69.5011L23.2215 71.0834L24.0455 72.9058L27.5449 71.3235L26.7208 69.5011ZM22.7415 72.4467C23.6245 74.1886 23.3959 75.8472 22.2787 77.276L23.8543 78.5079C25.4314 76.491 25.7724 74.0023 24.5254 71.5424L22.7415 72.4467ZM22.2787 77.276C20.601 79.4216 17.7932 79.6967 15.4042 77.8287L14.1723 79.4043C17.3134 81.8605 21.4074 81.6371 23.8543 78.5079L22.2787 77.276ZM15.4042 77.8287C13.0153 75.9608 12.6052 73.1695 14.2829 71.0238L12.7074 69.7918C10.2606 72.9211 11.0311 76.9481 14.1723 79.4043L15.4042 77.8287ZM14.2829 71.0238C15.3966 69.5996 16.9326 68.9933 18.8415 69.4314L19.2889 67.4821C16.6064 66.8664 14.2881 67.7704 12.7074 69.7918L14.2829 71.0238ZM20.0482 68.64L20.7566 64.8411L18.7905 64.4745L18.0821 68.2734L20.0482 68.64ZM20.0042 63.6848C15.9973 62.7349 12.2925 64.2296 9.70103 67.5439L11.2766 68.7758C13.4416 66.007 16.379 64.8808 19.5429 65.6308L20.0042 63.6848ZM9.70983 67.5328C5.751 72.4507 6.78379 79.0179 11.6438 82.7053L12.8527 81.112C8.84988 78.0749 8.04727 72.7876 11.2678 68.7869L9.70983 67.5328Z" fill="#00A372"/>
<path d="M28.2722 62.636C31.9799 66.6734 38.1416 66.94 42.206 62.9466C46.4189 59.11 46.4947 52.9431 42.6692 49.017C38.9615 44.9796 32.7627 44.6737 28.6983 48.6672C24.4854 52.5038 24.4468 58.71 28.2722 62.636ZM39.6486 51.8744C42.0793 54.4439 42.118 57.8637 39.627 60.2202C37.1359 62.5766 33.7235 62.3481 31.2928 59.7786C28.8622 57.2091 28.7864 53.7501 31.2774 51.3936C33.7684 49.0372 37.218 49.3049 39.6486 51.8744Z" fill="white"/>
<path d="M28.2722 62.636L29.0087 61.9596L28.9988 61.9488L28.9884 61.9382L28.2722 62.636ZM42.206 62.9466L41.5327 62.2072L41.5187 62.22L41.5052 62.2333L42.206 62.9466ZM42.6692 49.017L41.9327 49.6934L41.9427 49.7043L41.953 49.7148L42.6692 49.017ZM28.6983 48.6672L29.3716 49.4066L29.3856 49.3938L29.3992 49.3805L28.6983 48.6672ZM27.5357 63.3124C31.622 67.7621 38.4349 68.0538 42.9069 63.6599L41.5052 62.2333C37.8483 65.8263 32.3379 65.5848 29.0087 61.9596L27.5357 63.3124ZM42.8793 63.6859C47.5146 59.4647 47.6015 52.646 43.3855 48.3191L41.953 49.7148C45.3879 53.2401 45.3232 58.7553 41.5327 62.2072L42.8793 63.6859ZM43.4058 48.3406C39.3244 43.8963 32.4746 43.555 27.9975 47.9539L29.3992 49.3805C33.0509 45.7925 38.5986 46.0628 41.9327 49.6934L43.4058 48.3406ZM28.025 47.9279C23.3844 52.154 23.3451 59.0122 27.556 63.3339L28.9884 61.9382C25.5485 58.4077 25.5865 52.8536 29.3716 49.4066L28.025 47.9279ZM38.9222 52.5616C39.9861 53.6863 40.4817 54.9458 40.4834 56.1286C40.4851 57.3044 39.9999 58.4908 38.9397 59.4937L40.3142 60.9466C41.7451 59.593 42.486 57.8913 42.4834 56.1257C42.4809 54.3671 41.7418 52.632 40.3751 51.1872L38.9222 52.5616ZM38.9397 59.4937C37.8796 60.4965 36.6681 60.9152 35.4942 60.8482C34.3133 60.7809 33.0832 60.2161 32.0193 59.0914L30.5664 60.4658C31.9331 61.9106 33.6246 62.7449 35.3803 62.845C37.143 62.9455 38.8833 62.3002 40.3142 60.9466L38.9397 59.4937ZM32.0193 59.0914C30.9548 57.9662 30.4487 56.6946 30.4395 55.4985C30.4303 54.3108 30.9093 53.1184 31.9646 52.1201L30.5902 50.6672C29.1544 52.0253 28.4258 53.7406 28.4395 55.5139C28.4531 57.2789 29.2002 59.0216 30.5664 60.4658L32.0193 59.0914ZM31.9646 52.1201C33.0199 51.1218 34.2371 50.7097 35.4225 50.7848C36.6161 50.8604 37.8577 51.4363 38.9222 52.5616L40.3751 51.1872C39.0089 49.7429 37.3103 48.9003 35.5488 48.7888C33.779 48.6767 32.0259 49.309 30.5902 50.6672L31.9646 52.1201Z" fill="#00A372"/>
<path d="M50.4944 32.1745L57.7226 42.3408L42.9467 37.5409L39.888 39.7157L50.8399 55.1191L54.0526 52.8349L46.84 42.6906L61.5783 47.4841L64.637 45.3093L53.6851 29.9059L50.4944 32.1745Z" fill="white"/>
<path d="M50.4944 32.1745L49.9149 31.3595L49.0999 31.939L49.6794 32.754L50.4944 32.1745ZM57.7226 42.3408L57.4137 43.2919L60.2902 44.2263L58.5376 41.7613L57.7226 42.3408ZM42.9467 37.5409L43.2556 36.5898L42.7772 36.4344L42.3672 36.7259L42.9467 37.5409ZM39.888 39.7157L39.3085 38.9007L38.4935 39.4801L39.073 40.2951L39.888 39.7157ZM50.8399 55.1191L50.0249 55.6986L50.6043 56.5136L51.4193 55.9341L50.8399 55.1191ZM54.0526 52.8349L54.6321 53.6499L55.4471 53.0704L54.8676 52.2554L54.0526 52.8349ZM46.84 42.6906L47.1493 41.7396L44.2713 40.8036L46.025 43.27L46.84 42.6906ZM61.5783 47.4841L61.269 48.435L61.7476 48.5907L62.1577 48.2991L61.5783 47.4841ZM64.637 45.3093L65.2164 46.1243L66.0314 45.5449L65.452 44.7299L64.637 45.3093ZM53.6851 29.9059L54.5001 29.3264L53.9206 28.5114L53.1056 29.0909L53.6851 29.9059ZM49.6794 32.754L56.9076 42.9202L58.5376 41.7613L51.3094 31.595L49.6794 32.754ZM58.0316 41.3897L43.2556 36.5898L42.6377 38.492L57.4137 43.2919L58.0316 41.3897ZM42.3672 36.7259L39.3085 38.9007L40.4675 40.5307L43.5261 38.3559L42.3672 36.7259ZM39.073 40.2951L50.0249 55.6986L51.6549 54.5396L40.703 39.1362L39.073 40.2951ZM51.4193 55.9341L54.6321 53.6499L53.4731 52.0199L50.2604 54.3041L51.4193 55.9341ZM54.8676 52.2554L47.655 42.1111L46.025 43.27L53.2376 53.4143L54.8676 52.2554ZM46.5307 43.6415L61.269 48.435L61.8876 46.5331L47.1493 41.7396L46.5307 43.6415ZM62.1577 48.2991L65.2164 46.1243L64.0575 44.4943L60.9988 46.6691L62.1577 48.2991ZM65.452 44.7299L54.5001 29.3264L52.8701 30.4854L63.822 45.8888L65.452 44.7299ZM53.1056 29.0909L49.9149 31.3595L51.0738 32.9895L54.2645 30.7209L53.1056 29.0909Z" fill="#00A372"/>
<path d="M71.421 29.7468L72.9527 32.7239L76.578 30.8587L77.9739 33.5717C77.3951 34.6893 76.3916 35.6307 74.927 36.3842C71.4698 38.163 68.3791 37.1722 66.6497 33.811C64.9698 30.5458 65.8501 27.2994 68.8992 25.7306C70.5558 24.8783 72.3058 24.7977 73.8845 25.5644L75.6566 22.1628C73.2134 20.7782 70.1832 20.8494 67.2062 22.3811C62.0436 24.9765 60.274 30.6845 62.9401 35.6893C65.5341 40.7311 70.9169 42.5769 76.4389 39.7358C79.44 38.1918 81.5251 35.7526 81.9918 33.2959L78.3355 26.1893L71.421 29.7468Z" fill="white"/>
<path d="M71.421 29.7468L70.9635 28.8576L70.0743 29.3151L70.5318 30.2043L71.421 29.7468ZM72.9527 32.7239L72.0635 33.1814L72.521 34.0706L73.4102 33.6131L72.9527 32.7239ZM76.578 30.8587L77.4672 30.4012L77.0097 29.512L76.1205 29.9695L76.578 30.8587ZM77.9739 33.5717L78.8618 34.0315L79.0992 33.5732L78.8631 33.1142L77.9739 33.5717ZM73.8845 25.5644L73.4476 26.464L74.3221 26.8887L74.7713 26.0264L73.8845 25.5644ZM75.6566 22.1628L76.5434 22.6248L76.9894 21.7688L76.1496 21.2928L75.6566 22.1628ZM67.2062 22.3811L67.6554 23.2746L67.6637 23.2703L67.2062 22.3811ZM62.9401 35.6893L63.8293 35.2318L63.826 35.2254L63.8226 35.2191L62.9401 35.6893ZM81.9918 33.2959L82.9743 33.4825L83.0385 33.1444L82.8811 32.8384L81.9918 33.2959ZM78.3355 26.1893L79.2247 25.7318L78.7672 24.8426L77.878 25.3001L78.3355 26.1893ZM70.5318 30.2043L72.0635 33.1814L73.8419 32.2664L72.3102 29.2893L70.5318 30.2043ZM73.4102 33.6131L77.0355 31.7479L76.1205 29.9695L72.4952 31.8347L73.4102 33.6131ZM75.6888 31.3162L77.0847 34.0292L78.8631 33.1142L77.4672 30.4012L75.6888 31.3162ZM77.0859 33.1118C76.6247 34.0022 75.7977 34.8116 74.4695 35.495L75.3845 37.2734C76.9855 36.4497 78.1654 35.3764 78.8618 34.0315L77.0859 33.1118ZM74.4695 35.495C72.9154 36.2946 71.5524 36.4197 70.4396 36.0709C69.3287 35.7226 68.3104 34.8529 67.5389 33.3535L65.7605 34.2685C66.7184 36.1303 68.1101 37.4366 69.8413 37.9793C71.5705 38.5214 73.4815 38.2525 75.3845 37.2734L74.4695 35.495ZM67.5389 33.3535C66.7928 31.9032 66.652 30.5337 66.9649 29.401C67.2752 28.2782 68.0576 27.2882 69.3567 26.6198L68.4417 24.8414C66.6916 25.7418 65.5094 27.1594 65.0372 28.8683C64.5677 30.5673 64.8268 32.4536 65.7605 34.2685L67.5389 33.3535ZM69.3567 26.6198C70.7675 25.894 72.1849 25.8507 73.4476 26.464L74.3213 24.6649C72.4267 23.7448 70.3441 23.8626 68.4417 24.8414L69.3567 26.6198ZM74.7713 26.0264L76.5434 22.6248L74.7697 21.7008L72.9976 25.1024L74.7713 26.0264ZM76.1496 21.2928C73.3558 19.7094 69.9618 19.8387 66.7487 21.4919L67.6637 23.2703C70.4047 21.86 73.071 21.8469 75.1635 23.0328L76.1496 21.2928ZM66.757 21.4876C61.0921 24.3356 59.1278 30.6597 62.0575 36.1594L63.8226 35.2191C61.4202 30.7093 62.9952 25.6174 67.6554 23.2745L66.757 21.4876ZM62.0508 36.1468C63.4565 38.8787 65.6499 40.7982 68.2936 41.6232C70.9377 42.4484 73.9349 42.1488 76.8964 40.625L75.9814 38.8466C73.421 40.164 70.9657 40.362 68.8894 39.714C66.8127 39.066 65.0177 37.5416 63.8293 35.2318L62.0508 36.1468ZM76.8964 40.625C80.0744 38.99 82.4324 36.3348 82.9743 33.4825L81.0094 33.1092C80.6178 35.1704 78.8057 37.3935 75.9814 38.8466L76.8964 40.625ZM82.8811 32.8384L79.2247 25.7318L77.4463 26.6468L81.1026 33.7534L82.8811 32.8384ZM77.878 25.3001L70.9635 28.8576L71.8785 30.6361L78.793 27.0785L77.878 25.3001Z" fill="#00A372"/>
<path d="M97.8099 30.6944L102.301 29.0606L94.7964 24.4643C97.6819 22.8399 98.6066 20.4061 97.462 17.2599C96.0959 13.5047 93.0992 12.2963 88.8365 13.8471L81.1992 16.6255L87.6607 34.3867L91.3905 33.0298L89.0828 26.6865L90.6814 26.105L97.8099 30.6944ZM86.166 18.6686L89.8197 17.3394C91.8495 16.6009 92.9799 17.0229 93.5799 18.6722C94.1799 20.3214 93.5849 21.3711 91.5551 22.1095L87.9013 23.4387L86.166 18.6686Z" fill="white"/>
<path d="M97.8099 30.6944L97.2686 31.5352L97.6856 31.8038L98.1518 31.6342L97.8099 30.6944ZM102.301 29.0606L102.643 30.0004L104.592 29.2912L102.823 28.2078L102.301 29.0606ZM94.7964 24.4643L94.3058 23.5929L92.8224 24.4279L94.2741 25.317L94.7964 24.4643ZM81.1992 16.6255L80.8573 15.6857L79.9176 16.0276L80.2595 16.9674L81.1992 16.6255ZM87.6607 34.3867L86.7209 34.7286L87.0628 35.6683L88.0025 35.3264L87.6607 34.3867ZM91.3905 33.0298L91.7324 33.9695L92.6721 33.6277L92.3302 32.6879L91.3905 33.0298ZM89.0828 26.6865L88.741 25.7468L87.8012 26.0886L88.1431 27.0284L89.0828 26.6865ZM90.6814 26.105L91.2227 25.2642L90.8056 24.9956L90.3395 25.1652L90.6814 26.105ZM86.166 18.6686L85.8241 17.7288L84.8843 18.0707L85.2262 19.0105L86.166 18.6686ZM87.9013 23.4387L86.9616 23.7806L87.3035 24.7204L88.2432 24.3785L87.9013 23.4387ZM98.1518 31.6342L102.643 30.0004L101.959 28.1209L97.468 29.7547L98.1518 31.6342ZM102.823 28.2078L95.3187 23.6115L94.2741 25.317L101.779 29.9134L102.823 28.2078ZM95.2869 25.3357C96.8747 24.4419 98.0249 23.2657 98.5776 21.7819C99.1306 20.2973 99.0317 18.6496 98.4017 16.918L96.5223 17.6018C97.0369 19.0164 97.048 20.1587 96.7034 21.0837C96.3586 22.0094 95.6036 22.8623 94.3058 23.5929L95.2869 25.3357ZM98.4017 16.918C97.6486 14.8479 96.3895 13.3441 94.6049 12.6345C92.8447 11.9346 90.7605 12.083 88.4946 12.9073L89.1784 14.7868C91.1752 14.0604 92.7207 14.0376 93.866 14.493C94.9869 14.9387 95.9092 15.9167 96.5223 17.6018L98.4017 16.918ZM88.4946 12.9073L80.8573 15.6857L81.5411 17.5652L89.1784 14.7868L88.4946 12.9073ZM80.2595 16.9674L86.7209 34.7286L88.6004 34.0448L82.139 16.2836L80.2595 16.9674ZM88.0025 35.3264L91.7324 33.9695L91.0486 32.09L87.3188 33.4469L88.0025 35.3264ZM92.3302 32.6879L90.0226 26.3446L88.1431 27.0284L90.4508 33.3717L92.3302 32.6879ZM89.4247 27.6262L91.0232 27.0447L90.3395 25.1652L88.741 25.7468L89.4247 27.6262ZM90.14 26.9458L97.2686 31.5352L98.3512 29.8536L91.2227 25.2642L90.14 26.9458ZM86.5078 19.6083L90.1616 18.2791L89.4778 16.3996L85.8241 17.7288L86.5078 19.6083ZM90.1616 18.2791C91.0977 17.9386 91.6153 17.9501 91.8983 18.0516C92.1277 18.134 92.3977 18.3477 92.6402 19.014L94.5197 18.3303C94.1621 17.3474 93.5669 16.5255 92.5737 16.1691C91.6341 15.832 90.5715 16.0018 89.4778 16.3996L90.1616 18.2791ZM92.6402 19.014C92.8826 19.6804 92.813 20.0176 92.6901 20.2282C92.5385 20.4878 92.1493 20.8292 91.2132 21.1698L91.8969 23.0493C92.9906 22.6514 93.9139 22.0987 94.4172 21.2366C94.9493 20.3254 94.8772 19.3132 94.5197 18.3303L92.6402 19.014ZM91.2132 21.1698L87.5594 22.499L88.2432 24.3785L91.8969 23.0493L91.2132 21.1698ZM88.8411 23.0969L87.1057 18.3267L85.2262 19.0105L86.9616 23.7806L88.8411 23.0969Z" fill="#00A372"/>
<path d="M115.404 26.4614L119.486 25.5374L108.176 8.71947L103.7 9.73296L100.763 29.7761L104.845 28.8521L105.407 24.4892L113.017 22.7662L115.404 26.4614ZM105.847 20.9292L106.847 13.1176L111.087 19.7428L105.847 20.9292Z" fill="white"/>
<path d="M115.404 26.4614L114.564 27.004L114.943 27.5911L115.625 27.4367L115.404 26.4614ZM119.486 25.5374L119.707 26.5127L121.13 26.1904L120.316 24.9793L119.486 25.5374ZM108.176 8.71947L109.006 8.16144L108.624 7.59286L107.956 7.74415L108.176 8.71947ZM103.7 9.73296L103.479 8.75765L102.81 8.90914L102.71 9.58798L103.7 9.73296ZM100.763 29.7761L99.7734 29.6312L99.562 31.0733L100.984 30.7515L100.763 29.7761ZM104.845 28.8521L105.065 29.8274L105.747 29.6731L105.836 28.98L104.845 28.8521ZM105.407 24.4892L105.186 23.5139L104.505 23.6682L104.415 24.3613L105.407 24.4892ZM113.017 22.7662L113.857 22.2237L113.478 21.6366L112.797 21.7909L113.017 22.7662ZM105.847 20.9292L104.855 20.8022L104.673 22.2202L106.068 21.9045L105.847 20.9292ZM106.847 13.1176L107.689 12.5785L106.204 10.2592L105.855 12.9907L106.847 13.1176ZM111.087 19.7428L111.308 20.7181L112.697 20.4036L111.929 19.2037L111.087 19.7428ZM115.625 27.4367L119.707 26.5127L119.265 24.562L115.183 25.4861L115.625 27.4367ZM120.316 24.9793L109.006 8.16144L107.347 9.2775L118.656 26.0954L120.316 24.9793ZM107.956 7.74415L103.479 8.75765L103.92 10.7083L108.397 9.69479L107.956 7.74415ZM102.71 9.58798L99.7734 29.6312L101.752 29.9211L104.689 9.87794L102.71 9.58798ZM100.984 30.7515L105.065 29.8274L104.624 27.8768L100.542 28.8008L100.984 30.7515ZM105.836 28.98L106.399 24.6171L104.415 24.3613L103.853 28.7242L105.836 28.98ZM105.628 25.4645L113.238 23.7416L112.797 21.7909L105.186 23.5139L105.628 25.4645ZM112.177 23.3088L114.564 27.004L116.244 25.9188L113.857 22.2237L112.177 23.3088ZM106.839 21.0562L107.839 13.2446L105.855 12.9907L104.855 20.8022L106.839 21.0562ZM106.004 13.6567L110.245 20.2819L111.929 19.2037L107.689 12.5785L106.004 13.6567ZM110.866 18.7675L105.626 19.9539L106.068 21.9045L111.308 20.7181L110.866 18.7675Z" fill="#00A372"/>
<path d="M127.93 24.9269L131.88 24.545L130.418 9.41453L136.035 8.87157L135.679 5.18973L120.468 6.66012L120.824 10.342L126.467 9.79641L127.93 24.9269Z" fill="white"/>
<path d="M127.93 24.9269L126.934 25.0231L127.031 26.0185L128.026 25.9222L127.93 24.9269ZM131.88 24.545L131.977 25.5404L132.972 25.4441L132.876 24.4488L131.88 24.545ZM130.418 9.41453L130.322 8.41917L129.326 8.51538L129.422 9.51074L130.418 9.41453ZM136.035 8.87157L136.131 9.86693L137.126 9.77072L137.03 8.77536L136.035 8.87157ZM135.679 5.18973L136.674 5.09352L136.578 4.09816L135.583 4.19437L135.679 5.18973ZM120.468 6.66012L120.371 5.66476L119.376 5.76098L119.472 6.75634L120.468 6.66012ZM120.824 10.342L119.828 10.4382L119.924 11.4335L120.92 11.3373L120.824 10.342ZM126.467 9.79641L127.463 9.70019L127.366 8.70483L126.371 8.80105L126.467 9.79641ZM128.026 25.9222L131.977 25.5404L131.784 23.5496L127.834 23.9315L128.026 25.9222ZM132.876 24.4488L131.413 9.31831L129.422 9.51074L130.885 24.6412L132.876 24.4488ZM130.514 10.4099L136.131 9.86693L135.938 7.87621L130.322 8.41917L130.514 10.4099ZM137.03 8.77536L136.674 5.09352L134.683 5.28595L135.039 8.96779L137.03 8.77536ZM135.583 4.19437L120.371 5.66476L120.564 7.65548L135.775 6.18509L135.583 4.19437ZM119.472 6.75634L119.828 10.4382L121.819 10.2457L121.463 6.56391L119.472 6.75634ZM120.92 11.3373L126.563 10.7918L126.371 8.80105L120.727 9.3466L120.92 11.3373ZM125.472 9.89263L126.934 25.0231L128.925 24.8307L127.463 9.70019L125.472 9.89263Z" fill="#00A372"/>
<path d="M139.452 17.2527C139.344 21.8954 142.547 24.6707 147.325 24.7818C152.076 24.8923 155.405 22.269 155.513 17.6263L155.79 5.69553L151.795 5.60259L151.525 17.2364C151.466 19.7468 150.004 21.0901 147.412 21.0298C144.821 20.9695 143.396 19.559 143.454 17.0487L143.725 5.41482L139.73 5.32188L139.452 17.2527Z" fill="white"/>
<path d="M155.79 5.69553L156.79 5.71879L156.813 4.71906L155.814 4.6958L155.79 5.69553ZM151.795 5.60259L151.819 4.60286L150.819 4.5796L150.796 5.57933L151.795 5.60259ZM143.725 5.41482L144.724 5.43808L144.748 4.43835L143.748 4.41509L143.725 5.41482ZM139.73 5.32188L139.753 4.32215L138.753 4.29889L138.73 5.29862L139.73 5.32188ZM138.452 17.2294C138.393 19.7999 139.256 21.9423 140.875 23.4487C142.48 24.9417 144.731 25.7217 147.302 25.7815L147.348 23.7821C145.142 23.7307 143.402 23.0675 142.238 21.9844C141.088 20.9147 140.404 19.3482 140.452 17.2759L138.452 17.2294ZM147.302 25.7815C149.861 25.8411 152.139 25.1657 153.807 23.7488C155.491 22.3194 156.453 20.22 156.513 17.6496L154.513 17.603C154.465 19.6754 153.708 21.2089 152.513 22.2243C151.302 23.2521 149.54 23.8331 147.348 23.7821L147.302 25.7815ZM156.513 17.6496L156.79 5.71879L154.791 5.67227L154.513 17.603L156.513 17.6496ZM155.814 4.6958L151.819 4.60286L151.772 6.60232L155.767 6.69526L155.814 4.6958ZM150.796 5.57933L150.525 17.2132L152.525 17.2597L152.795 5.62585L150.796 5.57933ZM150.525 17.2132C150.5 18.2802 150.184 18.9531 149.741 19.3617C149.292 19.7755 148.562 20.0563 147.436 20.0301L147.389 22.0296C148.854 22.0636 150.151 21.7029 151.096 20.8325C152.046 19.957 152.491 18.703 152.525 17.2597L150.525 17.2132ZM147.436 20.0301C146.309 20.0039 145.584 19.6891 145.147 19.2514C144.717 18.8206 144.429 18.1338 144.454 17.0719L142.454 17.0254C142.421 18.4739 142.816 19.7475 143.732 20.6646C144.641 21.5749 145.924 21.9955 147.389 22.0296L147.436 20.0301ZM144.454 17.0719L144.724 5.43808L142.725 5.39156L142.454 17.0254L144.454 17.0719ZM143.748 4.41509L139.753 4.32215L139.706 6.32161L143.701 6.41455L143.748 4.41509ZM138.73 5.29862L138.452 17.2294L140.452 17.2759L140.729 5.34514L138.73 5.29862Z" fill="#00A372"/>
<path d="M163.713 22.2221L165.677 7.14862L161.715 6.6322L159.272 25.3737L172.231 27.0625L172.709 23.3946L163.713 22.2221Z" fill="white"/>
<path d="M163.713 22.2221L162.721 22.0929L162.592 23.0845L163.584 23.2138L163.713 22.2221ZM165.677 7.14862L166.669 7.27785L166.798 6.28624L165.807 6.157L165.677 7.14862ZM161.715 6.6322L161.844 5.64059L160.852 5.51135L160.723 6.50297L161.715 6.6322ZM159.272 25.3737L158.281 25.2445L158.151 26.2361L159.143 26.3653L159.272 25.3737ZM172.231 27.0625L172.101 28.0541L173.093 28.1834L173.222 27.1918L172.231 27.0625ZM172.709 23.3946L173.7 23.5238L173.83 22.5322L172.838 22.4029L172.709 23.3946ZM164.704 22.3514L166.669 7.27785L164.686 7.01939L162.721 22.0929L164.704 22.3514ZM165.807 6.157L161.844 5.64059L161.586 7.62382L165.548 8.14023L165.807 6.157ZM160.723 6.50297L158.281 25.2445L160.264 25.5029L162.706 6.76144L160.723 6.50297ZM159.143 26.3653L172.101 28.0541L172.36 26.0709L159.402 24.3821L159.143 26.3653ZM173.222 27.1918L173.7 23.5238L171.717 23.2653L171.239 26.9333L173.222 27.1918ZM172.838 22.4029L163.842 21.2305L163.584 23.2138L172.58 24.3862L172.838 22.4029Z" fill="#00A372"/>
<path d="M183.68 30.2815L187.742 31.2868L185.179 11.1825L180.724 10.08L169.107 26.6756L173.17 27.6808L175.63 24.034L183.204 25.9083L183.68 30.2815ZM177.62 21.0496L182.018 14.5168L182.836 22.3402L177.62 21.0496Z" fill="white"/>
<path d="M183.68 30.2815L182.686 30.3896L182.761 31.0844L183.44 31.2522L183.68 30.2815ZM187.742 31.2868L187.502 32.2575L188.919 32.6081L188.734 31.1603L187.742 31.2868ZM185.179 11.1825L186.171 11.0561L186.085 10.3764L185.42 10.2118L185.179 11.1825ZM180.724 10.08L180.964 9.10928L180.298 8.94447L179.905 9.50655L180.724 10.08ZM169.107 26.6756L168.288 26.1021L167.452 27.2962L168.867 27.6463L169.107 26.6756ZM173.17 27.6808L172.93 28.6515L173.608 28.8194L173.999 28.24L173.17 27.6808ZM175.63 24.034L175.87 23.0632L175.192 22.8954L174.801 23.4747L175.63 24.034ZM183.204 25.9083L184.199 25.8002L184.123 25.1054L183.445 24.9375L183.204 25.9083ZM177.62 21.0496L176.79 20.4912L175.992 21.677L177.38 22.0203L177.62 21.0496ZM182.018 14.5168L183.013 14.4128L182.726 11.6739L181.188 13.9583L182.018 14.5168ZM182.836 22.3402L182.595 23.311L183.978 23.6531L183.83 22.2363L182.836 22.3402ZM183.44 31.2522L187.502 32.2575L187.983 30.316L183.92 29.3108L183.44 31.2522ZM188.734 31.1603L186.171 11.0561L184.187 11.309L186.75 31.4132L188.734 31.1603ZM185.42 10.2118L180.964 9.10928L180.484 11.0507L184.939 12.1533L185.42 10.2118ZM179.905 9.50655L168.288 26.1021L169.927 27.249L181.543 10.6534L179.905 9.50655ZM168.867 27.6463L172.93 28.6515L173.41 26.7101L169.348 25.7048L168.867 27.6463ZM173.999 28.24L176.459 24.5932L174.801 23.4747L172.341 27.1216L173.999 28.24ZM175.39 25.0047L182.964 26.879L183.445 24.9375L175.87 23.0632L175.39 25.0047ZM182.21 26.0163L182.686 30.3896L184.674 30.1734L184.199 25.8002L182.21 26.0163ZM178.45 21.6081L182.848 15.0752L181.188 13.9583L176.79 20.4912L178.45 21.6081ZM181.023 14.6207L181.841 22.4442L183.83 22.2363L183.013 14.4128L181.023 14.6207ZM183.076 21.3695L177.86 20.0789L177.38 22.0203L182.595 23.311L183.076 21.3695Z" fill="#00A372"/>
<path d="M195.563 34.5291L199.265 35.9601L204.745 21.7815L210.009 23.816L211.342 20.3658L197.088 14.856L195.755 18.3062L201.043 20.3505L195.563 34.5291Z" fill="white"/>
<path d="M195.563 34.5291L194.63 34.1686L194.269 35.1013L195.202 35.4618L195.563 34.5291ZM199.265 35.9601L198.904 36.8928L199.837 37.2534L200.197 36.3206L199.265 35.9601ZM204.745 21.7815L205.106 20.8487L204.173 20.4882L203.813 21.4209L204.745 21.7815ZM210.009 23.816L209.648 24.7487L210.581 25.1093L210.942 24.1765L210.009 23.816ZM211.342 20.3658L212.275 20.7263L212.636 19.7936L211.703 19.433L211.342 20.3658ZM197.088 14.856L197.449 13.9232L196.516 13.5627L196.156 14.4954L197.088 14.856ZM195.755 18.3062L194.822 17.9457L194.461 18.8784L195.394 19.2389L195.755 18.3062ZM201.043 20.3505L201.976 20.711L202.337 19.7783L201.404 19.4177L201.043 20.3505ZM195.202 35.4618L198.904 36.8928L199.625 35.0273L195.923 33.5964L195.202 35.4618ZM200.197 36.3206L205.678 22.142L203.813 21.4209L198.332 35.5995L200.197 36.3206ZM204.385 22.7142L209.648 24.7487L210.369 22.8833L205.106 20.8487L204.385 22.7142ZM210.942 24.1765L212.275 20.7263L210.41 20.0052L209.076 23.4555L210.942 24.1765ZM211.703 19.433L197.449 13.9232L196.728 15.7887L210.982 21.2985L211.703 19.433ZM196.156 14.4954L194.822 17.9457L196.687 18.6667L198.021 15.2165L196.156 14.4954ZM195.394 19.2389L200.683 21.2832L201.404 19.4177L196.115 17.3735L195.394 19.2389ZM200.111 19.9899L194.63 34.1686L196.495 34.8896L201.976 20.711L200.111 19.9899Z" fill="#00A372"/>
<path d="M206.334 39.2492L209.911 41.03L218.334 24.1105L214.757 22.3297L206.334 39.2492Z" fill="white"/>
<path d="M206.334 39.2492L205.439 38.8036L204.993 39.6988L205.889 40.1444L206.334 39.2492ZM209.911 41.03L209.466 41.9252L210.361 42.3709L210.807 41.4757L209.911 41.03ZM218.334 24.1105L219.229 24.5562L219.675 23.661L218.78 23.2153L218.334 24.1105ZM214.757 22.3297L215.202 21.4345L214.307 20.9889L213.862 21.8841L214.757 22.3297ZM205.889 40.1444L209.466 41.9252L210.357 40.1348L206.78 38.354L205.889 40.1444ZM210.807 41.4757L219.229 24.5562L217.439 23.6649L209.016 40.5844L210.807 41.4757ZM218.78 23.2153L215.202 21.4345L214.311 23.225L217.888 25.0057L218.78 23.2153ZM213.862 21.8841L205.439 38.8036L207.229 39.6949L215.652 22.7754L213.862 21.8841Z" fill="#00A372"/>
<path d="M221.042 36.2763C218.009 40.8423 219.225 46.8888 224.075 49.8797C228.808 53.0522 234.814 51.6502 237.71 46.9965C240.743 42.4305 239.557 36.3386 234.707 33.3477C229.974 30.1752 223.939 31.6226 221.042 36.2763ZM234.213 44.7473C232.3 47.7222 228.989 48.578 226.105 46.7232C223.221 44.8683 222.626 41.5003 224.539 38.5255C226.453 35.5506 229.793 34.6494 232.677 36.5042C235.561 38.3591 236.127 41.7725 234.213 44.7473Z" fill="white"/>
<path d="M221.042 36.2763L221.875 36.8296L221.883 36.8173L221.891 36.8047L221.042 36.2763ZM224.075 49.8797L224.631 49.049L224.616 49.0385L224.599 49.0285L224.075 49.8797ZM237.71 46.9965L236.877 46.4432L236.869 46.4555L236.861 46.4681L237.71 46.9965ZM234.707 33.3477L234.15 34.1784L234.166 34.1889L234.182 34.1989L234.707 33.3477ZM220.209 35.723C216.867 40.7552 218.213 47.4401 223.55 50.7308L224.599 49.0285C220.236 46.3375 219.152 40.9294 221.875 36.8296L220.209 35.723ZM223.518 50.7103C228.725 54.201 235.367 52.6538 238.559 47.525L236.861 46.4681C234.26 50.6466 228.89 51.9035 224.631 49.049L223.518 50.7103ZM238.543 47.5499C241.882 42.5237 240.575 35.7911 235.232 32.4966L234.182 34.1989C238.54 36.8861 239.605 42.3373 236.877 46.4432L238.543 47.5499ZM235.264 32.5171C230.05 29.0224 223.382 30.6252 220.193 35.7478L221.891 36.8047C224.496 32.62 229.898 31.328 234.15 34.1784L235.264 32.5171ZM233.372 44.2064C232.535 45.5085 231.43 46.2911 230.282 46.5758C229.141 46.8588 227.873 46.6715 226.646 45.8821L225.564 47.5642C227.22 48.6297 229.05 48.9419 230.764 48.517C232.471 48.0937 233.978 46.961 235.054 45.2883L233.372 44.2064ZM226.646 45.8821C225.418 45.0927 224.722 44.0165 224.506 42.8607C224.289 41.698 224.543 40.3685 225.38 39.0664L223.698 37.9845C222.622 39.6573 222.217 41.4992 222.54 43.2279C222.864 44.9635 223.907 46.4987 225.564 47.5642L226.646 45.8821ZM225.38 39.0664C226.218 37.7636 227.332 36.9679 228.491 36.6728C229.642 36.3797 230.914 36.5595 232.136 37.3453L233.218 35.6632C231.556 34.5941 229.716 34.2971 227.997 34.7346C226.287 35.1701 224.774 36.3125 223.698 37.9845L225.38 39.0664ZM232.136 37.3453C233.358 38.1311 234.049 39.2143 234.26 40.3832C234.472 41.5603 234.21 42.9036 233.372 44.2064L235.054 45.2883C236.13 43.6162 236.541 41.7654 236.228 40.0284C235.914 38.2831 234.88 36.7323 233.218 35.6632L232.136 37.3453Z" fill="#00A372"/>
<path d="M255.936 50.564L247.795 60.0148L248.92 44.5196L246.076 42.0701L233.741 56.3894L236.727 58.9622L244.851 49.5319L243.723 64.9891L246.567 67.4386L258.902 53.1193L255.936 50.564Z" fill="white"/>
<path d="M255.936 50.564L256.589 49.8064L255.831 49.1537L255.179 49.9113L255.936 50.564ZM247.795 60.0148L246.797 59.9423L246.578 62.9589L248.552 60.6674L247.795 60.0148ZM248.92 44.5196L249.917 44.592L249.954 44.0903L249.573 43.7619L248.92 44.5196ZM246.076 42.0701L246.729 41.3124L245.971 40.6598L245.319 41.4174L246.076 42.0701ZM233.741 56.3894L232.983 55.7367L232.33 56.4943L233.088 57.147L233.741 56.3894ZM236.727 58.9622L236.075 59.7199L236.832 60.3725L237.485 59.6149L236.727 58.9622ZM244.851 49.5319L245.849 49.6047L246.069 46.5864L244.094 48.8793L244.851 49.5319ZM243.723 64.9891L242.726 64.9163L242.689 65.4182L243.071 65.7467L243.723 64.9891ZM246.567 67.4386L245.914 68.1962L246.672 68.8489L247.324 68.0912L246.567 67.4386ZM258.902 53.1193L259.66 53.7719L260.313 53.0143L259.555 52.3616L258.902 53.1193ZM255.179 49.9113L247.037 59.3621L248.552 60.6674L256.694 51.2167L255.179 49.9113ZM248.792 60.0872L249.917 44.592L247.922 44.4472L246.797 59.9423L248.792 60.0872ZM249.573 43.7619L246.729 41.3124L245.424 42.8277L248.267 45.2772L249.573 43.7619ZM245.319 41.4174L232.983 55.7367L234.498 57.042L246.834 42.7227L245.319 41.4174ZM233.088 57.147L236.075 59.7199L237.38 58.2046L234.393 55.6317L233.088 57.147ZM237.485 59.6149L245.609 50.1846L244.094 48.8793L235.97 58.3095L237.485 59.6149ZM243.854 49.4592L242.726 64.9163L244.721 65.0618L245.849 49.6047L243.854 49.4592ZM243.071 65.7467L245.914 68.1962L247.219 66.6809L244.376 64.2314L243.071 65.7467ZM247.324 68.0912L259.66 53.7719L258.145 52.4666L245.809 66.7859L247.324 68.0912ZM259.555 52.3616L256.589 49.8064L255.284 51.3217L258.25 53.8769L259.555 52.3616Z" fill="#00A372"/>
<path d="M250.926 66.8407C249.857 69.5732 250.669 72.8687 253.208 75.7054C256.341 79.2059 259.968 79.6553 262.624 77.2784C264.696 75.4236 264.871 72.9476 263.208 69.8344L261.662 67.0145C260.694 65.1635 260.648 64.2622 261.352 63.632C262.238 62.8397 263.541 63.1222 264.91 64.6512C266.224 66.1198 266.748 67.7167 266.46 69.4599L269.924 70.0915C270.703 67.7636 269.852 64.8292 267.602 62.3145C264.594 58.9547 261.045 58.4714 258.591 60.6683C256.579 62.469 256.38 65.0393 258.113 68.2711L259.604 71.0307C260.561 72.7472 260.546 73.7024 259.762 74.4047C258.736 75.3231 257.358 74.9982 255.935 73.4089C254.369 71.6586 253.819 69.5057 254.388 67.5104L250.926 66.8407Z" fill="white"/>
<path d="M250.926 66.8407L251.116 65.8589L250.298 65.7007L249.995 66.4763L250.926 66.8407ZM263.208 69.8344L264.09 69.3631L264.085 69.3537L263.208 69.8344ZM261.662 67.0145L260.776 67.478L260.781 67.4866L260.785 67.4951L261.662 67.0145ZM266.46 69.4599L265.474 69.2971L265.313 70.2673L266.281 70.4437L266.46 69.4599ZM269.924 70.0915L269.745 71.0753L270.598 71.2308L270.873 70.4089L269.924 70.0915ZM258.113 68.2711L257.231 68.7438L257.233 68.7466L258.113 68.2711ZM259.604 71.0307L258.725 71.5062L258.731 71.5175L259.604 71.0307ZM254.388 67.5104L255.35 67.7848L255.649 66.7358L254.578 66.5286L254.388 67.5104ZM249.995 66.4763C248.75 69.657 249.75 73.3414 252.462 76.3723L253.953 75.0384C251.588 72.396 250.963 69.4893 251.857 67.205L249.995 66.4763ZM252.462 76.3723C254.136 78.2424 256.022 79.3864 257.942 79.6841C259.888 79.9859 261.755 79.398 263.291 78.0235L261.957 76.5333C260.837 77.5357 259.563 77.9116 258.248 77.7077C256.907 77.4998 255.412 76.6689 253.953 75.0384L252.462 76.3723ZM263.291 78.0235C264.496 76.945 265.197 75.6315 265.314 74.1047C265.428 72.6096 264.974 71.0186 264.09 69.3632L262.326 70.3056C263.105 71.7633 263.395 72.967 263.32 73.952C263.247 74.9051 262.824 75.757 261.957 76.5333L263.291 78.0235ZM264.085 69.3537L262.539 66.5338L260.785 67.4951L262.331 70.315L264.085 69.3537ZM262.548 66.5509C262.076 65.6487 261.904 65.1089 261.877 64.7827C261.858 64.5542 261.905 64.4796 262.019 64.3771L260.686 62.8869C260.096 63.4146 259.814 64.1058 259.884 64.9482C259.945 65.6929 260.28 66.5292 260.776 67.478L262.548 66.5509ZM262.019 64.3771C262.199 64.2164 262.394 64.1576 262.691 64.2371C263.041 64.3307 263.551 64.6327 264.165 65.3181L265.655 63.9842C264.9 63.1407 264.074 62.5369 263.209 62.3051C262.29 62.0592 261.391 62.2553 260.686 62.8869L262.019 64.3771ZM264.165 65.3181C265.308 66.5949 265.705 67.8949 265.474 69.2971L267.447 69.6228C267.791 67.5385 267.141 65.6447 265.655 63.9842L264.165 65.3181ZM266.281 70.4437L269.745 71.0753L270.104 69.1077L266.64 68.4761L266.281 70.4437ZM270.873 70.4089C271.804 67.6258 270.744 64.326 268.347 61.6475L266.856 62.9814C268.961 65.3324 269.603 67.9015 268.976 69.7742L270.873 70.4089ZM268.347 61.6475C266.735 59.8465 264.905 58.7352 263.056 58.4217C261.183 58.104 259.376 58.624 257.924 59.9232L259.258 61.4134C260.261 60.5157 261.456 60.1789 262.722 60.3936C264.013 60.6125 265.461 61.4226 266.856 62.9814L268.347 61.6475ZM257.924 59.9232C256.738 60.9849 256.053 62.3154 255.95 63.8666C255.848 65.3868 256.311 67.027 257.231 68.7437L258.994 67.7985C258.181 66.2835 257.877 65.0226 257.945 63.9995C258.011 63.0074 258.432 62.1524 259.258 61.4134L257.924 59.9232ZM257.233 68.7466L258.725 71.5062L260.484 70.5552L258.992 67.7956L257.233 68.7466ZM258.731 71.5175C259.184 72.3313 259.327 72.8302 259.336 73.131C259.344 73.3493 259.288 73.487 259.095 73.6596L260.429 75.1498C261.02 74.6201 261.364 73.9291 261.335 73.0651C261.31 72.2835 260.981 71.4466 260.478 70.5439L258.731 71.5175ZM259.095 73.6596C258.825 73.9008 258.565 73.9596 258.243 73.8779C257.861 73.7808 257.323 73.4594 256.68 72.742L255.19 74.0758C255.97 74.9477 256.833 75.5834 257.751 75.8165C258.73 76.0649 259.672 75.827 260.429 75.1498L259.095 73.6596ZM256.68 72.742C255.313 71.214 254.886 69.4089 255.35 67.7848L253.426 67.236C252.751 69.6025 253.424 72.1032 255.19 74.0758L256.68 72.742ZM254.578 66.5286L251.116 65.8589L250.736 67.8225L254.198 68.4922L254.578 66.5286Z" fill="#00A372"/>
<path d="M265.826 80.5637L267.822 83.3185L278.107 76.2991L275.683 72.954L265.826 80.5637ZM261.896 82.411C260.65 83.3141 260.433 84.6715 261.336 85.9177C262.239 87.1639 263.581 87.3588 264.827 86.4557C266.051 85.5685 266.284 84.233 265.381 82.9868C264.478 81.7406 263.12 81.5238 261.896 82.411Z" fill="white"/>
<path d="M265.826 80.5637L265.214 79.7722L264.447 80.365L265.016 81.1505L265.826 80.5637ZM267.822 83.3185L267.012 83.9053L267.582 84.6925L268.385 84.1445L267.822 83.3185ZM278.107 76.2991L278.67 77.1251L279.52 76.5452L278.916 75.7123L278.107 76.2991ZM275.683 72.954L276.492 72.3672L275.888 71.5325L275.072 72.1625L275.683 72.954ZM265.016 81.1505L267.012 83.9053L268.631 82.7317L266.635 79.977L265.016 81.1505ZM268.385 84.1445L278.67 77.1251L277.543 75.4731L267.258 82.4925L268.385 84.1445ZM278.916 75.7123L276.492 72.3672L274.873 73.5408L277.297 76.8859L278.916 75.7123ZM275.072 72.1625L265.214 79.7722L266.437 81.3553L276.294 73.7456L275.072 72.1625ZM261.309 81.6013C260.513 82.1781 259.969 82.9612 259.822 83.878C259.676 84.7949 259.949 85.7085 260.526 86.5045L262.146 85.3309C261.819 84.8808 261.75 84.4925 261.797 84.1934C261.845 83.8942 262.032 83.547 262.483 83.2208L261.309 81.6013ZM260.526 86.5045C261.104 87.3012 261.885 87.8422 262.803 87.9814C263.718 88.1201 264.624 87.8377 265.414 87.2655L264.24 85.646C263.783 85.9768 263.396 86.0485 263.103 86.004C262.812 85.9599 262.471 85.7805 262.146 85.3309L260.526 86.5045ZM265.414 87.2655C266.196 86.6985 266.739 85.9268 266.888 85.0174C267.038 84.1062 266.768 83.1965 266.19 82.4L264.571 83.5735C264.897 84.0232 264.962 84.4044 264.915 84.6943C264.867 84.986 264.682 85.3258 264.24 85.646L265.414 87.2655ZM266.19 82.4C265.614 81.6041 264.832 81.0612 263.92 80.912C263.008 80.7627 262.098 81.0296 261.309 81.6013L262.483 83.2208C262.918 82.9052 263.299 82.837 263.597 82.8857C263.896 82.9347 264.245 83.1232 264.571 83.5735L266.19 82.4Z" fill="#00A372"/>
</svg>
