<svg width="40" height="40" viewBox="0 0 40 40" fill="none" xmlns="http://www.w3.org/2000/svg">
<path d="M36.6667 21.0333V24.4666C36.6667 25.3999 35.9 26.1666 34.95 26.1666H31.7334C29.9334 26.1666 28.2834 24.8499 28.1334 23.0499C28.0334 21.9999 28.4334 21.0166 29.1334 20.3333C29.75 19.6999 30.6 19.3333 31.5334 19.3333H34.95C35.9 19.3333 36.6667 20.0999 36.6667 21.0333Z" fill="white"/>
<path d="M25.633 23.2667C25.483 21.5167 26.1163 19.8 27.383 18.55C28.4497 17.4667 29.933 16.8333 31.533 16.8333H32.483C32.9497 16.8333 33.333 16.45 33.2663 15.9833C32.8163 12.75 30.0163 10.25 26.6663 10.25H9.99967C6.31634 10.25 3.33301 13.2333 3.33301 16.9167V28.5833C3.33301 32.2667 6.31634 35.25 9.99967 35.25H26.6663C30.033 35.25 32.8163 32.75 33.2663 29.5167C33.333 29.05 32.9497 28.6667 32.483 28.6667H31.733C28.5663 28.6667 25.8997 26.3 25.633 23.2667ZM21.6663 19.8333H11.6663C10.983 19.8333 10.4163 19.2833 10.4163 18.5833C10.4163 17.8833 10.983 17.3333 11.6663 17.3333H21.6663C22.3497 17.3333 22.9163 17.9 22.9163 18.5833C22.9163 19.2667 22.3497 19.8333 21.6663 19.8333Z" fill="white"/>
<path d="M23.6838 6.63333C24.1171 7.08333 23.7337 7.75 23.1004 7.75H10.0504C8.23375 7.75 6.53375 8.28333 5.11708 9.2C4.46708 9.61667 3.58375 9.16667 3.90042 8.45C4.83375 6.26667 7.01708 4.75 9.53375 4.75H18.9004C20.8337 4.75 22.5504 5.43333 23.6838 6.63333Z" fill="white"/>
</svg>
